<svg width="48" height="48" viewBox="0 0 48 48" fill="none" xmlns="http://www.w3.org/2000/svg">
<path d="M39.55 41.1L26.55 28.15C25.55 29.0167 24.3917 29.6917 23.0751 30.175C21.7584 30.6583 20.3834 30.9 18.95 30.9C15.55 30.9 12.675 29.725 10.325 27.375C7.97505 25.025 6.80005 22.1667 6.80005 18.8C6.80005 15.4667 7.97505 12.625 10.325 10.275C12.675 7.925 15.5334 6.75 18.9 6.75C22.2667 6.75 25.125 7.925 27.475 10.275C29.825 12.625 31 15.4667 31 18.8C31 20.2 30.7584 21.5667 30.275 22.9C29.7917 24.2333 29.1 25.4333 28.2001 26.5L41.2001 39.45L39.55 41.1ZM18.95 28.65C21.65 28.65 23.95 27.6917 25.85 25.775C27.75 23.8583 28.7001 21.5333 28.7001 18.8C28.7001 16.0667 27.75 13.75 25.85 11.85C23.95 9.95 21.65 9 18.95 9C16.1834 9 13.85 9.95 11.95 11.85C10.05 13.75 9.10005 16.0667 9.10005 18.8C9.10005 21.5333 10.05 23.8583 11.95 25.775C13.85 27.6917 16.1834 28.65 18.95 28.65Z" fill="black"/>
</svg>
