<svg width="20" height="20" viewBox="0 0 20 20" fill="none" xmlns="http://www.w3.org/2000/svg">
<path d="M15.896 16.646L10.917 11.688C10.5003 12.0073 10.0453 12.2537 9.55201 12.427C9.05867 12.601 8.54834 12.688 8.02101 12.688C6.71501 12.688 5.60734 12.233 4.69801 11.323C3.78801 10.413 3.33301 9.30534 3.33301 8.00001C3.33301 6.70801 3.78801 5.60401 4.69801 4.68801C5.60734 3.77068 6.71501 3.31201 8.02101 3.31201C9.31234 3.31201 10.413 3.76701 11.323 4.67701C12.233 5.58701 12.688 6.69468 12.688 8.00001C12.688 8.54134 12.601 9.06201 12.427 9.56201C12.2537 10.062 12.014 10.5137 11.708 10.917L16.667 15.875L15.896 16.646ZM8.02101 11.604C9.02101 11.604 9.86801 11.2533 10.562 10.552C11.2567 9.85068 11.604 9.00001 11.604 8.00001C11.604 7.00001 11.2567 6.14934 10.562 5.44801C9.86801 4.74668 9.02101 4.39601 8.02101 4.39601C7.00701 4.39601 6.15267 4.74668 5.45801 5.44801C4.76401 6.14934 4.41701 7.00001 4.41701 8.00001C4.41701 9.00001 4.76401 9.85068 5.45801 10.552C6.15267 11.2533 7.00701 11.604 8.02101 11.604Z" fill="black"/>
</svg>
