<svg width="77" height="32" viewBox="0 0 77 32" fill="none" xmlns="http://www.w3.org/2000/svg">
<g id="logo">
<path id="Vector" d="M76.5 0H0.5V32H76.5V0Z" fill="#CD1125"/>
<path id="Vector_2" d="M12.7696 23.0278C12.7696 23.0278 12.7696 12.2111 12.7696 11.7833C12.4139 11.7833 10.161 11.7833 10.161 11.7833V9.09443H18.4018V11.7833C18.4018 11.7833 16.0897 11.7833 15.7932 11.7833C15.7932 12.15 15.7932 23.0278 15.7932 23.0278H12.7696ZM64.6454 14.9611C63.8154 14.35 63.1039 13.8 63.1039 13.0055C63.1039 12.6389 63.2225 12.3333 63.4596 12.0889C64.1711 11.4167 66.009 11.7222 66.009 11.7222V9.03332C66.009 9.03332 62.9853 8.42221 61.266 9.88888C60.436 10.6222 59.9617 11.7222 59.9617 13.1278C59.9617 14.7778 60.7917 15.3889 61.7403 16.1222L62.6889 16.9167C63.5189 17.7111 63.8154 18.5055 63.5782 19.0555C62.8668 20.6444 60.1989 20.1555 60.1989 20.1555V22.8444C60.1989 22.8444 63.5782 23.3944 65.4754 21.8055C66.3647 21.0111 66.839 19.9111 66.839 18.3833C66.839 16.6722 65.6532 15.8167 64.6454 14.9611ZM51.543 9.09443V23.0278H58.1238V20.3389C58.1238 20.3389 54.8631 20.3389 54.5074 20.3389C54.5074 19.9722 54.5074 9.09443 54.5074 9.09443H51.543ZM49.053 16C49.053 20.3389 46.3258 23.3333 42.3536 23.3333C38.3814 23.3333 35.6542 20.3389 35.6542 16C35.6542 11.7222 38.4407 8.66666 42.3536 8.66666C46.2072 8.66666 49.053 11.7833 49.053 16ZM45.9701 15.8778C45.9701 13.8611 44.6658 11.7222 42.2943 11.7222C39.9229 11.7222 38.6186 13.9222 38.6186 15.8778C38.6186 17.8944 39.5671 20.3389 42.2943 20.3389C45.0215 20.3389 45.9701 17.9555 45.9701 15.8778ZM33.3421 16C33.3421 20.3389 30.6149 23.3333 26.6427 23.3333C22.6705 23.3333 19.9433 20.3389 19.9433 16C19.9433 11.7222 22.7298 8.66666 26.6427 8.66666C30.5556 8.66666 33.3421 11.7833 33.3421 16ZM30.3184 15.8778C30.3184 13.8611 29.0141 11.7222 26.6427 11.7222C24.2712 11.7222 22.9669 13.9222 22.9669 15.8778C22.9669 17.8944 23.9155 20.3389 26.6427 20.3389C29.3699 20.3389 30.3184 17.9555 30.3184 15.8778Z" fill="white"/>
</g>
</svg>
