<svg width="24" height="24" viewBox="0 0 24 24" fill="none" xmlns="http://www.w3.org/2000/svg">
<g id="Icon">
<path id="icon-path" d="M19.0752 19.9752L13.1004 14.0256C12.6004 14.4088 12.0544 14.7044 11.4624 14.9124C10.8704 15.1212 10.258 15.2256 9.62523 15.2256C8.05803 15.2256 6.72883 14.6796 5.63763 13.5876C4.54563 12.4956 3.99963 11.1664 3.99963 9.6C3.99963 8.0496 4.54563 6.7248 5.63763 5.6256C6.72883 4.5248 8.05803 3.9744 9.62523 3.9744C11.1748 3.9744 12.4956 4.5204 13.5876 5.6124C14.6796 6.7044 15.2256 8.0336 15.2256 9.6C15.2256 10.2496 15.1212 10.8744 14.9124 11.4744C14.7044 12.0744 14.4168 12.6164 14.0496 13.1004L20.0004 19.05L19.0752 19.9752ZM9.62523 13.9248C10.8252 13.9248 11.8416 13.504 12.6744 12.6624C13.508 11.8208 13.9248 10.8 13.9248 9.6C13.9248 8.4 13.508 7.3792 12.6744 6.5376C11.8416 5.696 10.8252 5.2752 9.62523 5.2752C8.40843 5.2752 7.38323 5.696 6.54963 6.5376C5.71683 7.3792 5.30043 8.4 5.30043 9.6C5.30043 10.8 5.71683 11.8208 6.54963 12.6624C7.38323 13.504 8.40843 13.9248 9.62523 13.9248V13.9248Z" fill="black"/>
</g>
</svg>
