<svg width="20" height="20" viewBox="0 0 20 20" fill="none" xmlns="http://www.w3.org/2000/svg">
<path d="M10 16.167C9.264 16.167 8.56966 16.0453 7.917 15.802C7.26433 15.5593 6.667 15.2227 6.125 14.792L4.729 16.188C4.59033 16.3267 4.42366 16.396 4.229 16.396C4.035 16.396 3.86833 16.3267 3.729 16.188C3.59033 16.0487 3.521 15.882 3.521 15.688C3.521 15.4933 3.59033 15.3267 3.729 15.188L5.125 13.792C4.69433 13.25 4.35766 12.6527 4.115 12C3.87166 11.3473 3.75 10.653 3.75 9.91699C3.75 8.16699 4.354 6.68766 5.562 5.47899C6.77066 4.27099 8.25 3.66699 10 3.66699H16.25V9.91699C16.25 11.667 15.646 13.146 14.438 14.354C13.2293 15.5627 11.75 16.167 10 16.167ZM10 14.833C11.3613 14.833 12.521 14.354 13.479 13.396C14.4377 12.4373 14.917 11.2777 14.917 9.91699V4.99999H10C8.63866 4.99999 7.479 5.47933 6.521 6.43799C5.56233 7.39599 5.083 8.55566 5.083 9.91699C5.083 10.4723 5.16633 10.9967 5.333 11.49C5.49966 11.9827 5.74266 12.4373 6.062 12.854L10.396 8.52099C10.5347 8.38166 10.7013 8.31199 10.896 8.31199C11.0907 8.31199 11.2573 8.38166 11.396 8.52099C11.5347 8.65966 11.604 8.82966 11.604 9.03099C11.604 9.23233 11.5347 9.40266 11.396 9.54199L7.062 13.833C7.47933 14.1663 7.93433 14.4163 8.427 14.583C8.92033 14.7497 9.44466 14.833 10 14.833Z" fill="black"/>
</svg>
