<svg width="48" height="48" viewBox="0 0 48 48" fill="none" xmlns="http://www.w3.org/2000/svg">
<mask id="mask0_2728_87848" style="mask-type:alpha" maskUnits="userSpaceOnUse" x="0" y="0" width="48" height="48">
<rect width="48" height="48" fill="#D9D9D9"/>
</mask>
<g mask="url(#mask0_2728_87848)">
<path d="M21.05 32.45L34.55 18.95L32.8 17.25L21.05 29L15.15 23.05L13.45 24.8L21.05 32.45ZM24 43C21.4 43 18.9417 42.5 16.625 41.5C14.3083 40.5 12.2917 39.1417 10.575 37.425C8.85833 35.7083 7.5 33.6917 6.5 31.375C5.5 29.0583 5 26.6 5 24C5 21.3667 5.5 18.8917 6.5 16.575C7.5 14.2583 8.85833 12.25 10.575 10.55C12.2917 8.85 14.3083 7.5 16.625 6.5C18.9417 5.5 21.4 5 24 5C26.6333 5 29.1083 5.5 31.425 6.5C33.7417 7.5 35.75 8.85 37.45 10.55C39.15 12.25 40.5 14.2583 41.5 16.575C42.5 18.8917 43 21.3667 43 24C43 26.6 42.5 29.0583 41.5 31.375C40.5 33.6917 39.15 35.7083 37.45 37.425C35.75 39.1417 33.7417 40.5 31.425 41.5C29.1083 42.5 26.6333 43 24 43ZM24 40.75C28.6667 40.75 32.625 39.1167 35.875 35.85C39.125 32.5833 40.75 28.6333 40.75 24C40.75 19.3333 39.125 15.375 35.875 12.125C32.625 8.875 28.6667 7.25 24 7.25C19.3667 7.25 15.4167 8.875 12.15 12.125C8.88333 15.375 7.25 19.3333 7.25 24C7.25 28.6333 8.88333 32.5833 12.15 35.85C15.4167 39.1167 19.3667 40.75 24 40.75Z" fill="black"/>
</g>
</svg>
