<svg width="20" height="20" viewBox="0 0 20 20" fill="none" xmlns="http://www.w3.org/2000/svg">
<path d="M6 17.958C5.58333 17.958 5.22933 17.8123 4.938 17.521C4.646 17.229 4.5 16.8747 4.5 16.458C4.5 16.0413 4.646 15.6873 4.938 15.396C5.22933 15.104 5.58333 14.958 6 14.958C6.41667 14.958 6.77067 15.104 7.062 15.396C7.354 15.6873 7.5 16.0413 7.5 16.458C7.5 16.8747 7.354 17.229 7.062 17.521C6.77067 17.8123 6.41667 17.958 6 17.958ZM14.021 17.958C13.6043 17.958 13.25 17.8123 12.958 17.521C12.6667 17.229 12.521 16.8747 12.521 16.458C12.521 16.0413 12.6667 15.6873 12.958 15.396C13.25 15.104 13.6043 14.958 14.021 14.958C14.4377 14.958 14.7917 15.104 15.083 15.396C15.375 15.6873 15.521 16.0413 15.521 16.458C15.521 16.8747 15.375 17.229 15.083 17.521C14.7917 17.8123 14.4377 17.958 14.021 17.958ZM5.125 4.854L7.167 9.188H12.812C12.854 9.188 12.896 9.17733 12.938 9.156C12.9793 9.13533 13.007 9.104 13.021 9.062L15.208 5.083C15.236 5.02767 15.236 4.97567 15.208 4.927C15.1807 4.87833 15.139 4.854 15.083 4.854H5.125ZM4.479 3.521H16.104C16.4793 3.521 16.7467 3.67033 16.906 3.969C17.066 4.26767 17.0627 4.56267 16.896 4.854L14.188 9.729C14.0487 9.979 13.861 10.1733 13.625 10.312C13.389 10.4513 13.132 10.521 12.854 10.521H6.812L5.917 12.188C5.875 12.2573 5.87133 12.3267 5.906 12.396C5.94067 12.4653 5.99967 12.5 6.083 12.5H15.562V13.833H5.979C5.42367 13.833 5 13.5867 4.708 13.094C4.41667 12.6007 4.41 12.111 4.688 11.625L5.833 9.521L2.833 3.208H1.25V1.875H3.688L4.479 3.521Z" fill="black"/>
</svg>
