<svg width="24" height="24" viewBox="0 0 24 24" fill="none" xmlns="http://www.w3.org/2000/svg">
<mask id="mask0_2159_63946" style="mask-type:alpha" maskUnits="userSpaceOnUse" x="0" y="0" width="24" height="24">
<rect width="24" height="24" fill="#D9D9D9"/>
</mask>
<g mask="url(#mask0_2159_63946)">
<path d="M7.3 22.5C6.8 22.5 6.375 22.325 6.025 21.975C5.675 21.625 5.5 21.2 5.5 20.7V3.3C5.5 2.8 5.675 2.375 6.025 2.025C6.375 1.675 6.8 1.5 7.3 1.5H16.7C17.2 1.5 17.625 1.675 17.975 2.025C18.325 2.375 18.5 2.8 18.5 3.3V20.7C18.5 21.2 18.325 21.625 17.975 21.975C17.625 22.325 17.2 22.5 16.7 22.5H7.3ZM7 17.775V20.7C7 20.7667 7.03333 20.8333 7.1 20.9C7.16667 20.9667 7.23333 21 7.3 21H16.7C16.7667 21 16.8333 20.9667 16.9 20.9C16.9667 20.8333 17 20.7667 17 20.7V17.775H7ZM12 20.275C12.25 20.275 12.4583 20.1873 12.625 20.012C12.7917 19.8373 12.875 19.625 12.875 19.375C12.875 19.1417 12.7917 18.9373 12.625 18.762C12.4583 18.5873 12.25 18.5 12 18.5C11.75 18.5 11.5417 18.5873 11.375 18.762C11.2083 18.9373 11.125 19.1417 11.125 19.375C11.125 19.625 11.2083 19.8373 11.375 20.012C11.5417 20.1873 11.75 20.275 12 20.275ZM7 16.275H17V5.75H7V16.275ZM7 4.25H17V3.3C17 3.23333 16.9667 3.16667 16.9 3.1C16.8333 3.03333 16.7667 3 16.7 3H7.3C7.23333 3 7.16667 3.03333 7.1 3.1C7.03333 3.16667 7 3.23333 7 3.3V4.25ZM7 17.775V21V20.7V17.775Z" fill="#1C1B1F"/>
</g>
</svg>
