<svg width="48" height="48" viewBox="0 0 48 48" fill="none" xmlns="http://www.w3.org/2000/svg">
<path d="M11.6 35.35C13.6 33.9833 15.5917 32.9167 17.575 32.15C19.5583 31.3833 21.7 31 24 31C26.3 31 28.45 31.3833 30.45 32.15C32.45 32.9167 34.45 33.9833 36.45 35.35C37.8833 33.65 38.9583 31.8667 39.675 30C40.3917 28.1333 40.75 26.1333 40.75 24C40.75 19.2667 39.1417 15.2917 35.925 12.075C32.7083 8.85833 28.7333 7.25 24 7.25C19.2667 7.25 15.2917 8.85833 12.075 12.075C8.85833 15.2917 7.25 19.2667 7.25 24C7.25 26.1333 7.60833 28.1333 8.325 30C9.04167 31.8667 10.1333 33.65 11.6 35.35ZM24 25.15C22.2 25.15 20.6833 24.5333 19.45 23.3C18.2167 22.0667 17.6 20.55 17.6 18.75C17.6 16.95 18.2167 15.4333 19.45 14.2C20.6833 12.9667 22.2 12.35 24 12.35C25.8 12.35 27.3167 12.9667 28.55 14.2C29.7833 15.4333 30.4 16.95 30.4 18.75C30.4 20.55 29.7833 22.0667 28.55 23.3C27.3167 24.5333 25.8 25.15 24 25.15ZM24 43C21.3667 43 18.9 42.5 16.6 41.5C14.3 40.5 12.2917 39.1417 10.575 37.425C8.85833 35.7083 7.5 33.7 6.5 31.4C5.5 29.1 5 26.6333 5 24C5 21.3667 5.5 18.9 6.5 16.6C7.5 14.3 8.85833 12.2917 10.575 10.575C12.2917 8.85833 14.3 7.5 16.6 6.5C18.9 5.5 21.3667 5 24 5C26.6333 5 29.1 5.5 31.4 6.5C33.7 7.5 35.7083 8.85833 37.425 10.575C39.1417 12.2917 40.5 14.3 41.5 16.6C42.5 18.9 43 21.3667 43 24C43 26.6333 42.5 29.1 41.5 31.4C40.5 33.7 39.1417 35.7083 37.425 37.425C35.7083 39.1417 33.7 40.5 31.4 41.5C29.1 42.5 26.6333 43 24 43ZM24 40.75C25.8667 40.75 27.7 40.45 29.5 39.85C31.3 39.25 33 38.3 34.6 37C33 35.8 31.3083 34.8833 29.525 34.25C27.7417 33.6167 25.9 33.3 24 33.3C22.1 33.3 20.25 33.6167 18.45 34.25C16.65 34.8833 14.9667 35.8 13.4 37C15 38.3 16.7 39.25 18.5 39.85C20.3 40.45 22.1333 40.75 24 40.75ZM24 22.85C25.2 22.85 26.1833 22.4667 26.95 21.7C27.7167 20.9333 28.1 19.95 28.1 18.75C28.1 17.55 27.7167 16.5667 26.95 15.8C26.1833 15.0333 25.2 14.65 24 14.65C22.8 14.65 21.8167 15.0333 21.05 15.8C20.2833 16.5667 19.9 17.55 19.9 18.75C19.9 19.95 20.2833 20.9333 21.05 21.7C21.8167 22.4667 22.8 22.85 24 22.85Z" fill="black"/>
</svg>
