<svg width="20" height="20" viewBox="0 0 20 20" fill="none" xmlns="http://www.w3.org/2000/svg">
<path d="M5.06201 14.333C5.77067 13.7637 6.53834 13.3367 7.36501 13.052C8.19101 12.7673 9.06934 12.625 10 12.625C10.9307 12.625 11.809 12.7673 12.635 13.052C13.4617 13.3367 14.236 13.7637 14.958 14.333C15.4447 13.7637 15.837 13.111 16.135 12.375C16.4337 11.639 16.583 10.8473 16.583 10C16.583 8.16667 15.9443 6.61101 14.667 5.33301C13.389 4.05567 11.8333 3.41701 10 3.41701C8.16667 3.41701 6.61101 4.05567 5.33301 5.33301C4.05567 6.61101 3.41701 8.16667 3.41701 10C3.41701 10.8613 3.56967 11.6563 3.87501 12.385C4.18034 13.1143 4.57601 13.7637 5.06201 14.333ZM10 10.646C9.23601 10.646 8.59367 10.3857 8.07301 9.86501C7.55234 9.34367 7.29201 8.70134 7.29201 7.93801C7.29201 7.17401 7.55234 6.53134 8.07301 6.01001C8.59367 5.48934 9.23601 5.22901 10 5.22901C10.764 5.22901 11.4063 5.48934 11.927 6.01001C12.4477 6.53134 12.708 7.17401 12.708 7.93801C12.708 8.70134 12.4477 9.34367 11.927 9.86501C11.4063 10.3857 10.764 10.646 10 10.646ZM10 17.917C8.90267 17.917 7.87134 17.7087 6.90601 17.292C5.94067 16.8753 5.10401 16.3127 4.39601 15.604C3.68734 14.896 3.12467 14.0593 2.70801 13.094C2.29134 12.1287 2.08301 11.0973 2.08301 10C2.08301 8.90267 2.29134 7.87134 2.70801 6.90601C3.12467 5.94067 3.68734 5.10401 4.39601 4.39601C5.10401 3.68734 5.94067 3.12467 6.90601 2.70801C7.87134 2.29134 8.90267 2.08301 10 2.08301C11.0973 2.08301 12.1287 2.29134 13.094 2.70801C14.0593 3.12467 14.896 3.68734 15.604 4.39601C16.3127 5.10401 16.8753 5.94067 17.292 6.90601C17.7087 7.87134 17.917 8.90267 17.917 10C17.917 11.0973 17.7087 12.1287 17.292 13.094C16.8753 14.0593 16.3127 14.896 15.604 15.604C14.896 16.3127 14.0593 16.8753 13.094 17.292C12.1287 17.7087 11.0973 17.917 10 17.917ZM10.021 16.583C10.715 16.583 11.413 16.465 12.115 16.229C12.8163 15.993 13.4307 15.6667 13.958 15.25C13.4447 14.8333 12.844 14.514 12.156 14.292C11.4687 14.0693 10.75 13.958 10 13.958C9.25001 13.958 8.53467 14.0657 7.85401 14.281C7.17334 14.4963 6.56934 14.8193 6.04201 15.25C6.56934 15.6667 7.18734 15.993 7.89601 16.229C8.60401 16.465 9.31234 16.583 10.021 16.583ZM10 9.31201C10.4027 9.31201 10.7327 9.18367 10.99 8.92701C11.2467 8.67034 11.375 8.34067 11.375 7.93801C11.375 7.53468 11.2467 7.20467 10.99 6.94801C10.7327 6.69067 10.4027 6.56201 10 6.56201C9.59734 6.56201 9.26734 6.69067 9.01001 6.94801C8.75334 7.20467 8.62501 7.53468 8.62501 7.93801C8.62501 8.34067 8.75334 8.67034 9.01001 8.92701C9.26734 9.18367 9.59734 9.31201 10 9.31201Z" fill="black"/>
</svg>
