<svg width="20" height="20" viewBox="0 0 20 20" fill="none" xmlns="http://www.w3.org/2000/svg">
<path d="M5.62499 17.625C5.26366 17.625 4.95799 17.5 4.70799 17.25C4.45799 17 4.33299 16.6943 4.33299 16.333C4.33299 15.9723 4.45799 15.667 4.70799 15.417C4.95799 15.167 5.26366 15.042 5.62499 15.042C5.98633 15.042 6.29199 15.1703 6.54199 15.427C6.79199 15.6837 6.91699 15.9927 6.91699 16.354C6.91699 16.7013 6.79199 17 6.54199 17.25C6.29199 17.5 5.98633 17.625 5.62499 17.625ZM14.375 17.625C14.0137 17.625 13.708 17.5 13.458 17.25C13.208 17 13.083 16.6943 13.083 16.333C13.083 15.9723 13.208 15.667 13.458 15.417C13.708 15.167 14.0137 15.042 14.375 15.042C14.7363 15.042 15.042 15.1703 15.292 15.427C15.542 15.6837 15.667 15.9927 15.667 16.354C15.667 16.7013 15.542 17 15.292 17.25C15.042 17.5 14.7363 17.625 14.375 17.625ZM1.41699 3.29201V2.20801H3.83299L6.99999 9.54201H13.125C13.1803 9.54201 13.2253 9.53134 13.26 9.51001C13.2947 9.48934 13.326 9.45834 13.354 9.41701L15.542 4.20801H16.688L14.333 9.83301C14.2363 10.0697 14.0803 10.2607 13.865 10.406C13.6497 10.552 13.41 10.625 13.146 10.625H6.60399L5.68799 12.229C5.64599 12.2983 5.64233 12.368 5.67699 12.438C5.71166 12.5073 5.77066 12.542 5.85399 12.542H15.667V13.625H5.87499C5.36099 13.625 4.97899 13.4063 4.72899 12.969C4.47899 12.531 4.48599 12.104 4.74999 11.688L5.89599 9.70801L3.12499 3.29201H1.41699Z" fill="black"/>
<path fill-rule="evenodd" clip-rule="evenodd" d="M7.5 1V2H13V1H10.25H7.5ZM7.5 5V4H10.25H13V5H7.5ZM7.5 8V7H10.25H13V8H7.5Z" fill="#1C1B1F"/>
</svg>
