<svg width="20" height="20" viewBox="0 0 20 20" fill="none" xmlns="http://www.w3.org/2000/svg">
<path d="M6.74999 16.583C6.38866 16.583 6.07599 16.4513 5.81199 16.188C5.54866 15.924 5.41699 15.6113 5.41699 15.25V5.5H4.41699V4.417H7.99999V3.521H12V4.417H15.583V5.5H14.583V15.229C14.583 15.6177 14.4547 15.9407 14.198 16.198C13.9407 16.4547 13.6247 16.583 13.25 16.583H6.74999ZM13.5 5.5H6.49999V15.25C6.49999 15.3193 6.52433 15.3783 6.57299 15.427C6.62166 15.4757 6.68066 15.5 6.74999 15.5H13.25C13.3053 15.5 13.361 15.4723 13.417 15.417C13.4723 15.361 13.5 15.3053 13.5 15.25V5.5ZM8.33299 14H9.41699V7H8.33299V14ZM10.583 14H11.667V7H10.583V14ZM6.49999 5.5V15.5V15.25V5.5Z" fill="black"/>
</svg>
