<svg width="48" height="48" viewBox="0 0 48 48" fill="none" xmlns="http://www.w3.org/2000/svg">
<path d="M16.45 35.15H31.55V32.85H16.45V35.15ZM16.45 26.75H31.55V24.5H16.45V26.75ZM11.9 43C11.1 43 10.4167 42.7167 9.85 42.15C9.28333 41.5833 9 40.9 9 40.1V7.9C9 7.1 9.28333 6.41667 9.85 5.85C10.4167 5.28333 11.1 5 11.9 5H29.25L39 14.75V40.1C39 40.9 38.7167 41.5833 38.15 42.15C37.5833 42.7167 36.9 43 36.1 43H11.9ZM28.15 15.75V7.25H11.9C11.7333 7.25 11.5833 7.31667 11.45 7.45C11.3167 7.58333 11.25 7.73333 11.25 7.9V40.1C11.25 40.2667 11.3167 40.4167 11.45 40.55C11.5833 40.6833 11.7333 40.75 11.9 40.75H36.1C36.2667 40.75 36.4167 40.6833 36.55 40.55C36.6833 40.4167 36.75 40.2667 36.75 40.1V15.75H28.15ZM11.25 7.25V15.75V7.25V40.75V7.25Z" fill="black"/>
</svg>
