<svg width="48" height="48" viewBox="0 0 48 48" fill="none" xmlns="http://www.w3.org/2000/svg">
<mask id="mask0_2159_63952" style="mask-type:alpha" maskUnits="userSpaceOnUse" x="0" y="0" width="48" height="48">
<rect width="48" height="48" fill="#D9D9D9"/>
</mask>
<g mask="url(#mask0_2159_63952)">
<path d="M13.9 45C13.1 45 12.4167 44.7167 11.85 44.15C11.2833 43.5833 11 42.9 11 42.1V5.9C11 5.1 11.2833 4.41667 11.85 3.85C12.4167 3.28333 13.1 3 13.9 3H34.1C34.9 3 35.5833 3.28333 36.15 3.85C36.7167 4.41667 37 5.1 37 5.9V42.1C37 42.9 36.7167 43.5833 36.15 44.15C35.5833 44.7167 34.9 45 34.1 45H13.9ZM13.25 37.35V42.1C13.25 42.2667 13.3167 42.4167 13.45 42.55C13.5833 42.6833 13.7333 42.75 13.9 42.75H34.1C34.2667 42.75 34.4167 42.6833 34.55 42.55C34.6833 42.4167 34.75 42.2667 34.75 42.1V37.35H13.25ZM24 41.45C24.4 41.45 24.7333 41.3167 25 41.05C25.2667 40.7833 25.4 40.45 25.4 40.05C25.4 39.65 25.2583 39.3167 24.975 39.05C24.6917 38.7833 24.3667 38.65 24 38.65C23.6 38.65 23.2667 38.7833 23 39.05C22.7333 39.3167 22.6 39.65 22.6 40.05C22.6 40.45 22.7417 40.7833 23.025 41.05C23.3083 41.3167 23.6333 41.45 24 41.45ZM13.25 35.1H34.75V9.65H13.25V35.1ZM13.25 7.4H34.75V5.9C34.75 5.73333 34.6833 5.58333 34.55 5.45C34.4167 5.31667 34.2667 5.25 34.1 5.25H13.9C13.7333 5.25 13.5833 5.31667 13.45 5.45C13.3167 5.58333 13.25 5.73333 13.25 5.9V7.4ZM13.25 37.35V42.75V42.1V37.35Z" fill="#1C1B1F"/>
</g>
</svg>
