<svg width="40" height="40" viewBox="0 0 40 40" fill="none" xmlns="http://www.w3.org/2000/svg">
<mask id="mask0_2159_63949" style="mask-type:alpha" maskUnits="userSpaceOnUse" x="0" y="0" width="40" height="40">
<rect width="40" height="40" fill="#D9D9D9"/>
</mask>
<g mask="url(#mask0_2159_63949)">
<path d="M11.792 37.5C11.0693 37.5 10.4513 37.243 9.93799 36.729C9.42399 36.215 9.16699 35.597 9.16699 34.875V5.125C9.16699 4.403 9.42399 3.785 9.93799 3.271C10.4513 2.757 11.0693 2.5 11.792 2.5H28.208C28.9307 2.5 29.5487 2.757 30.062 3.271C30.576 3.785 30.833 4.403 30.833 5.125V34.875C30.833 35.597 30.576 36.215 30.062 36.729C29.5487 37.243 28.9307 37.5 28.208 37.5H11.792ZM11.25 30.625V34.875C11.25 35.0137 11.3057 35.1387 11.417 35.25C11.5277 35.3613 11.6527 35.417 11.792 35.417H28.208C28.3473 35.417 28.4723 35.3613 28.583 35.25C28.6943 35.1387 28.75 35.0137 28.75 34.875V30.625H11.25ZM20 34.292C20.3613 34.292 20.667 34.167 20.917 33.917C21.167 33.667 21.292 33.3613 21.292 33C21.292 32.6667 21.167 32.375 20.917 32.125C20.667 31.875 20.3613 31.75 20 31.75C19.6387 31.75 19.333 31.875 19.083 32.125C18.833 32.375 18.708 32.6667 18.708 33C18.708 33.3613 18.833 33.667 19.083 33.917C19.333 34.167 19.6387 34.292 20 34.292ZM11.25 28.542H28.75V8.583H11.25V28.542ZM11.25 6.458H28.75V5.125C28.75 4.98633 28.6943 4.86133 28.583 4.75C28.4723 4.63867 28.3473 4.583 28.208 4.583H11.792C11.6527 4.583 11.5277 4.63867 11.417 4.75C11.3057 4.86133 11.25 4.98633 11.25 5.125V6.458ZM11.25 30.625V35.417V34.875V30.625Z" fill="#1C1B1F"/>
</g>
</svg>
