<svg width="20" height="20" viewBox="0 0 20 20" fill="none" xmlns="http://www.w3.org/2000/svg">
<mask id="mask0_2159_63943" style="mask-type:alpha" maskUnits="userSpaceOnUse" x="0" y="0" width="20" height="20">
<rect width="20" height="20" fill="#D9D9D9"/>
</mask>
<g mask="url(#mask0_2159_63943)">
<path d="M5.74999 18.583C5.37533 18.583 5.05933 18.4547 4.80199 18.198C4.54533 17.9407 4.41699 17.6247 4.41699 17.25V2.75001C4.41699 2.37534 4.54533 2.05934 4.80199 1.80201C5.05933 1.54534 5.37533 1.41701 5.74999 1.41701H14.25C14.6247 1.41701 14.9407 1.54534 15.198 1.80201C15.4547 2.05934 15.583 2.37534 15.583 2.75001V17.25C15.583 17.6247 15.4547 17.9407 15.198 18.198C14.9407 18.4547 14.6247 18.583 14.25 18.583H5.74999ZM5.49999 14.312V17.25C5.49999 17.3053 5.52766 17.361 5.58299 17.417C5.63899 17.4723 5.69466 17.5 5.74999 17.5H14.25C14.3053 17.5 14.361 17.4723 14.417 17.417C14.4723 17.361 14.5 17.3053 14.5 17.25V14.312H5.49999ZM9.99999 16.562C10.1807 16.562 10.3333 16.4963 10.458 16.365C10.5833 16.233 10.646 16.0837 10.646 15.917C10.646 15.7363 10.5833 15.58 10.458 15.448C10.3333 15.316 10.1807 15.25 9.99999 15.25C9.81933 15.25 9.66666 15.3127 9.54199 15.438C9.41666 15.5627 9.35399 15.7153 9.35399 15.896C9.35399 16.0767 9.41666 16.233 9.54199 16.365C9.66666 16.4963 9.81933 16.562 9.99999 16.562ZM5.49999 13.229H14.5V4.79201H5.49999V13.229ZM5.49999 3.70801H14.5V2.75001C14.5 2.69467 14.4723 2.63901 14.417 2.58301C14.361 2.52767 14.3053 2.50001 14.25 2.50001H5.74999C5.69466 2.50001 5.63899 2.52767 5.58299 2.58301C5.52766 2.63901 5.49999 2.69467 5.49999 2.75001V3.70801ZM5.49999 14.312V17.5V17.25V14.312Z" fill="#1C1B1F"/>
</g>
</svg>
