<svg width="20" height="20" viewBox="0 0 20 20" fill="none" xmlns="http://www.w3.org/2000/svg">
<path d="M2.41699 6.02101V2.41701H6.02099V3.50001H3.49999V6.02101H2.41699ZM2.41699 17.583V13.979H3.49999V16.5H6.02099V17.583H2.41699ZM13.979 17.583V16.5H16.5V13.979H17.583V17.583H13.979ZM16.5 6.02101V3.50001H13.979V2.41701H17.583V6.02101H16.5ZM13.771 13.771H14.646V14.646H13.771V13.771ZM13.771 12H14.646V12.896H13.771V12ZM12.896 12.896H13.771V13.771H12.896V12.896ZM12 13.771H12.896V14.646H12V13.771ZM11.125 12.896H12V13.771H11.125V12.896ZM12.896 11.125H13.771V12H12.896V11.125ZM12 12H12.896V12.896H12V12ZM11.125 11.125H12V12H11.125V11.125ZM15.146 4.85401V8.87501H11.125V4.85401H15.146ZM8.87499 11.125V15.146H4.85399V11.125H8.87499ZM8.87499 4.85401V8.87501H4.85399V4.85401H8.87499ZM8.12499 14.396V11.875H5.60399V14.396H8.12499ZM8.12499 8.12501V5.60401H5.60399V8.12501H8.12499ZM14.396 8.12501V5.60401H11.875V8.12501H14.396Z" fill="black"/>
</svg>
