<svg width="48" height="48" viewBox="0 0 48 48" fill="none" xmlns="http://www.w3.org/2000/svg">
<path d="M5 13.05V5H13.05V7.25H7.25V13.05H5ZM5 43V34.95H7.25V40.75H13.05V43H5ZM34.95 43V40.75H40.75V34.95H43V43H34.95ZM40.75 13.05V7.25H34.95V5H43V13.05H40.75ZM34.75 34.8H37.55V37.6H34.75V34.8ZM34.75 29.15H37.55V31.95H34.75V29.15ZM31.9 31.95H34.75V34.8H31.9V31.95ZM29.1 34.8H31.9V37.6H29.1V34.8ZM26.3 31.95H29.1V34.8H26.3V31.95ZM31.9 26.3H34.75V29.15H31.9V26.3ZM29.1 29.15H31.9V31.95H29.1V29.15ZM26.3 26.3H29.1V29.15H26.3V26.3ZM37.55 10.4V21.7H26.3V10.4H37.55ZM21.7 26.3V37.6H10.4V26.3H21.7ZM21.7 10.4V21.7H10.4V10.4H21.7ZM19.65 35.6V28.35H12.4V35.6H19.65ZM19.65 19.65V12.4H12.4V19.65H19.65ZM35.55 19.65V12.4H28.3V19.65H35.55Z" fill="black"/>
</svg>
