<svg width="12" height="12" viewBox="0 0 12 12" fill="none" xmlns="http://www.w3.org/2000/svg">
<mask id="mask0_6377_125" style="mask-type:alpha" maskUnits="userSpaceOnUse" x="0" y="0" width="12" height="12">
<rect width="12" height="12" fill="#D9D9D9"/>
</mask>
<g mask="url(#mask0_6377_125)">
<path d="M4.29561 11.2286L3.33719 9.63671L1.52686 9.22775L1.69534 7.3829L0.468437 6.00002L1.69534 4.61715L1.52686 2.7723L3.33719 2.36333L4.29561 0.771484L5.99996 1.50192L7.70431 0.771484L8.66274 2.36333L10.4731 2.7723L10.3046 4.61715L11.5315 6.00002L10.3046 7.3829L10.4731 9.22775L8.66274 9.63671L7.70431 11.2286L5.99996 10.4981L4.29561 11.2286ZM4.71491 9.91769L5.99996 9.37067L7.28501 9.91769L8.00105 8.71715L9.35811 8.41062L9.23909 7.03507L10.1492 6.00002L9.23909 4.96497L9.35811 3.58942L8.00105 3.2829L7.28501 2.08236L5.99996 2.62937L4.71491 2.08236L3.99887 3.2829L2.64181 3.57692L2.76084 4.96497L1.85077 6.00002L2.77334 7.03507L2.64181 8.42312L3.99887 8.72965L4.71491 9.91769ZM5.36246 7.8329L8.37034 4.83752L7.69697 4.17013L5.36246 6.49215L4.30295 5.43915L3.62959 6.11252L5.36246 7.8329Z" fill="black"/>
</g>
</svg>
