<svg width="20" height="20" viewBox="0 0 20 20" fill="none" xmlns="http://www.w3.org/2000/svg">
<mask id="mask0_3912_157523" style="mask-type:alpha" maskUnits="userSpaceOnUse" x="0" y="0" width="20" height="20">
<rect width="20" height="20" fill="#D9D9D9"/>
</mask>
<g mask="url(#mask0_3912_157523)">
<path d="M5.12499 17.417C4.74966 17.417 4.43366 17.2883 4.17699 17.031C3.92033 16.7743 3.79199 16.4583 3.79199 16.083V5.66699H4.87499V16.083C4.87499 16.153 4.89933 16.212 4.94799 16.26C4.99666 16.3087 5.05566 16.333 5.12499 16.333H13.542V17.417H5.12499ZM7.70799 14.833C7.33333 14.833 7.01733 14.7047 6.75999 14.448C6.50333 14.1907 6.37499 13.8747 6.37499 13.5V4.02099C6.37499 3.64566 6.50333 3.32633 6.75999 3.06299C7.01733 2.79899 7.33333 2.66699 7.70799 2.66699H15.188C15.5627 2.66699 15.882 2.79899 16.146 3.06299C16.41 3.32633 16.542 3.64566 16.542 4.02099V13.5C16.542 13.8747 16.41 14.1907 16.146 14.448C15.882 14.7047 15.5627 14.833 15.188 14.833H7.70799ZM7.70799 13.75H15.188C15.2573 13.75 15.3197 13.7257 15.375 13.677C15.4303 13.6283 15.458 13.5693 15.458 13.5V4.02099C15.458 3.95166 15.4303 3.88899 15.375 3.83299C15.3197 3.77766 15.2573 3.74999 15.188 3.74999H7.70799C7.63866 3.74999 7.57966 3.77766 7.53099 3.83299C7.48233 3.88899 7.45799 3.95166 7.45799 4.02099V13.5C7.45799 13.5693 7.48233 13.6283 7.53099 13.677C7.57966 13.7257 7.63866 13.75 7.70799 13.75Z" fill="black"/>
</g>
</svg>
