<svg width="48" height="48" viewBox="0 0 48 48" fill="none" xmlns="http://www.w3.org/2000/svg">
<path d="M27.9 19.15V17.25C28.9667 16.7167 30.1 16.325 31.3 16.075C32.5 15.825 33.7333 15.7 35 15.7C35.8 15.7 36.575 15.7583 37.325 15.875C38.075 15.9917 38.8333 16.15 39.6 16.35V18.1C38.8667 17.8333 38.125 17.6417 37.375 17.525C36.625 17.4083 35.8333 17.35 35 17.35C33.7333 17.35 32.5 17.5083 31.3 17.825C30.1 18.1417 28.9667 18.5833 27.9 19.15ZM27.9 30.1V28.1C28.9667 27.6333 30.1 27.275 31.3 27.025C32.5 26.775 33.7333 26.65 35 26.65C35.8 26.65 36.575 26.7083 37.325 26.825C38.075 26.9417 38.8333 27.0833 39.6 27.25V29.05C38.8667 28.7833 38.125 28.5917 37.375 28.475C36.625 28.3583 35.8333 28.3 35 28.3C33.7333 28.3 32.5 28.45 31.3 28.75C30.1 29.05 28.9667 29.5 27.9 30.1ZM27.9 24.65V22.7C28.9667 22.2 30.1 21.8167 31.3 21.55C32.5 21.2833 33.7333 21.15 35 21.15C35.8 21.15 36.575 21.2083 37.325 21.325C38.075 21.4417 38.8333 21.6 39.6 21.8V23.55C38.8667 23.3167 38.125 23.1417 37.375 23.025C36.625 22.9083 35.8333 22.85 35 22.85C33.7333 22.85 32.5 23.0083 31.3 23.325C30.1 23.6417 28.9667 24.0833 27.9 24.65ZM12.55 32.75C14.3833 32.75 16.1583 32.9667 17.875 33.4C19.5917 33.8333 21.2833 34.5 22.95 35.4V14.5C21.45 13.4333 19.8 12.625 18 12.075C16.2 11.525 14.3833 11.25 12.55 11.25C11.2833 11.25 10.125 11.3667 9.075 11.6C8.025 11.8333 6.9 12.1667 5.7 12.6C5.53333 12.6667 5.41667 12.75 5.35 12.85C5.28333 12.95 5.25 13.05 5.25 13.15V33.45C5.25 33.6167 5.31667 33.7417 5.45 33.825C5.58333 33.9083 5.73333 33.9333 5.9 33.9C6.73333 33.5 7.73333 33.2083 8.9 33.025C10.0667 32.8417 11.2833 32.75 12.55 32.75ZM25.2 35.4C26.9 34.5 28.575 33.8333 30.225 33.4C31.875 32.9667 33.6167 32.75 35.45 32.75C36.7167 32.75 37.9417 32.8417 39.125 33.025C40.3083 33.2083 41.3 33.4333 42.1 33.7C42.2667 33.7667 42.4167 33.7583 42.55 33.675C42.6833 33.5917 42.75 33.45 42.75 33.25V13.15C42.75 13.05 42.7167 12.95 42.65 12.85C42.5833 12.75 42.4667 12.6667 42.3 12.6C41.2 12.1333 40.1 11.7917 39 11.575C37.9 11.3583 36.7167 11.25 35.45 11.25C33.6167 11.25 31.825 11.525 30.075 12.075C28.325 12.625 26.7 13.4333 25.2 14.5V35.4ZM24.05 38.75C22.3833 37.5833 20.5667 36.675 18.6 36.025C16.6333 35.375 14.6167 35.05 12.55 35.05C11.4833 35.05 10.425 35.1667 9.375 35.4C8.325 35.6333 7.26667 35.9167 6.2 36.25C5.43333 36.6167 4.70833 36.5583 4.025 36.075C3.34167 35.5917 3 34.9167 3 34.05V13C3 12.4667 3.13333 11.9833 3.4 11.55C3.66667 11.1167 4.03333 10.7833 4.5 10.55C5.76667 10.0167 7.075 9.61666 8.425 9.35C9.775 9.08333 11.15 8.95 12.55 8.95C14.6167 8.95 16.625 9.24166 18.575 9.825C20.525 10.4083 22.3667 11.2833 24.1 12.45C25.7667 11.2833 27.5667 10.4083 29.5 9.825C31.4333 9.24166 33.4167 8.95 35.45 8.95C36.85 8.95 38.2167 9.08333 39.55 9.35C40.8833 9.61666 42.1833 10.0167 43.45 10.55C43.95 10.7833 44.3333 11.1167 44.6 11.55C44.8667 11.9833 45 12.4667 45 13V34.05C45 34.95 44.625 35.6417 43.875 36.125C43.125 36.6083 42.3833 36.65 41.65 36.25C40.6167 35.8833 39.5833 35.5917 38.55 35.375C37.5167 35.1583 36.4833 35.05 35.45 35.05C33.3833 35.05 31.3917 35.375 29.475 36.025C27.5583 36.675 25.75 37.5833 24.05 38.75Z" fill="black"/>
</svg>
