<svg width="48" height="48" viewBox="0 0 48 48" fill="none" xmlns="http://www.w3.org/2000/svg">
<path d="M24.0001 38.8C22.1001 38.8 20.3251 38.475 18.6751 37.825C17.0251 37.175 15.5501 36.2833 14.2501 35.15L10.5501 38.85C10.3168 39.0833 10.0501 39.2 9.7501 39.2C9.4501 39.2 9.18343 39.0833 8.9501 38.85C8.71676 38.6167 8.6001 38.35 8.6001 38.05C8.6001 37.75 8.71676 37.4833 8.9501 37.25L12.6501 33.6C11.5168 32.2667 10.6251 30.775 9.9751 29.125C9.3251 27.475 9.0001 25.7 9.0001 23.8C9.0001 19.6 10.4501 16.05 13.3501 13.15C16.2501 10.25 19.8001 8.79999 24.0001 8.79999H39.0001V23.8C39.0001 28 37.5501 31.55 34.6501 34.45C31.7501 37.35 28.2001 38.8 24.0001 38.8ZM24.0001 36.55C27.5334 36.55 30.5418 35.3083 33.0251 32.825C35.5084 30.3417 36.7501 27.3333 36.7501 23.8V11.05H24.0001C20.4668 11.05 17.4584 12.2917 14.9751 14.775C12.4918 17.2583 11.2501 20.2667 11.2501 23.8C11.2501 25.3667 11.5168 26.85 12.0501 28.25C12.5834 29.65 13.3001 30.9 14.2001 32L24.9501 21.25C25.1834 21.0167 25.4501 20.9 25.7501 20.9C26.0501 20.9 26.3168 21.0167 26.5501 21.25C26.7834 21.4833 26.9001 21.7583 26.9001 22.075C26.9001 22.3917 26.7834 22.6667 26.5501 22.9L15.8001 33.55C16.9001 34.4833 18.1501 35.2167 19.5501 35.75C20.9501 36.2833 22.4334 36.55 24.0001 36.55Z" fill="black"/>
</svg>
