<svg width="40" height="40" viewBox="0 0 40 40" fill="none" xmlns="http://www.w3.org/2000/svg">
<path d="M12 35.916C11.1667 35.916 10.4587 35.6247 9.876 35.042C9.292 34.458 9 33.7493 9 32.916C9 32.0827 9.292 31.3747 9.876 30.792C10.4587 30.208 11.1667 29.916 12 29.916C12.8333 29.916 13.5413 30.208 14.124 30.792C14.708 31.3747 15 32.0827 15 32.916C15 33.7493 14.708 34.458 14.124 35.042C13.5413 35.6247 12.8333 35.916 12 35.916ZM28.042 35.916C27.2087 35.916 26.5 35.6247 25.916 35.042C25.3333 34.458 25.042 33.7493 25.042 32.916C25.042 32.0827 25.3333 31.3747 25.916 30.792C26.5 30.208 27.2087 29.916 28.042 29.916C28.8753 29.916 29.5833 30.208 30.166 30.792C30.75 31.3747 31.042 32.0827 31.042 32.916C31.042 33.7493 30.75 34.458 30.166 35.042C29.5833 35.6247 28.8753 35.916 28.042 35.916ZM10.25 9.708L14.334 18.376H25.624C25.708 18.376 25.792 18.3547 25.876 18.312C25.9587 18.2707 26.014 18.208 26.042 18.124L30.416 10.166C30.472 10.0553 30.472 9.95133 30.416 9.854C30.3613 9.75667 30.278 9.708 30.166 9.708H10.25ZM8.958 7.042H32.208C32.9587 7.042 33.4933 7.34067 33.812 7.938C34.132 8.53533 34.1253 9.12533 33.792 9.708L28.376 19.458C28.0973 19.958 27.722 20.3467 27.25 20.624C26.778 20.9027 26.264 21.042 25.708 21.042H13.624L11.834 24.376C11.75 24.5147 11.7427 24.6533 11.812 24.792C11.8813 24.9307 11.9993 25 12.166 25H31.124V27.666H11.958C10.8473 27.666 10 27.1733 9.416 26.188C8.83333 25.2013 8.82 24.222 9.376 23.25L11.666 19.042L5.666 6.416H2.5V3.75H7.376L8.958 7.042Z" fill="black"/>
</svg>
