<svg width="89" height="32" viewBox="0 0 89 32" fill="none" xmlns="http://www.w3.org/2000/svg">
<g clip-path="url(#clip0)">
<path d="M17.8682 30.7535C17.9536 31.2692 17.7385 31.5712 17.2228 31.5712H12.5346C12.1043 31.5712 11.8038 31.3988 11.7611 30.8832L11.2881 27.2278H6.59989L6.12694 30.8832C6.08422 31.3988 5.78215 31.5712 5.35345 31.5712H0.663676C0.148015 31.5712 -0.0670984 31.2707 0.0183366 30.7535L6.21238 1.07552C6.29781 0.645289 6.59989 0.430176 7.03011 0.430176H10.8579C11.2881 0.430176 11.5887 0.645289 11.6756 1.07552L17.8682 30.7535ZM7.20098 22.538H10.6855L9.00732 9.67699H8.83493L7.20098 22.538Z" fill="white"/>
<path d="M20.8705 31.5697C20.3976 31.5697 20.1398 31.3119 20.1398 30.8389V1.16095C20.1398 0.688007 20.3976 0.430176 20.8705 0.430176H25.2583C25.7312 0.430176 25.989 0.688007 25.989 1.16095V26.6664H29.6444C30.1174 26.6664 30.3752 26.9242 30.3752 27.3971V30.8374C30.3752 31.3104 30.1174 31.5682 29.6444 31.5682H20.8705V31.5697Z" fill="white"/>
<path d="M33.5195 31.5697C33.0466 31.5697 32.7888 31.3119 32.7888 30.8389V1.16095C32.7888 0.688007 33.0466 0.430176 33.5195 0.430176H37.9072C38.3802 0.430176 38.638 0.688007 38.638 1.16095V26.6664H42.2934C42.7663 26.6664 43.0242 26.9242 43.0242 27.3971V30.8374C43.0242 31.3104 42.7663 31.5682 42.2934 31.5682H33.5195V31.5697Z" fill="white"/>
<path d="M45.9671 9.27123C45.4942 9.27123 45.2363 9.0134 45.2363 8.54045V0.730775C45.2363 0.257831 45.4942 0 45.9671 0H50.1397C50.6126 0 50.8705 0.257831 50.8705 0.730775V8.53893C50.8705 9.01187 50.6126 9.2697 50.1397 9.2697H45.9671V9.27123Z" fill="#E94E19"/>
<path d="M45.9671 31.5699C45.4942 31.5699 45.2363 31.312 45.2363 30.8391V13.8726C45.2363 13.3997 45.4942 13.1418 45.9671 13.1418H50.1824C50.6126 13.1418 50.8705 13.3997 50.8705 13.8726V30.8391C50.8705 31.312 50.6126 31.5699 50.1824 31.5699H45.9671Z" fill="white"/>
<path d="M53.5846 25.0325V6.96754C53.5846 3.2679 55.0034 0.0427246 61.6704 0.0427246C68.3374 0.0427246 69.7562 3.2679 69.7562 6.96754V8.53893C69.7562 9.01188 69.4984 9.26971 69.0254 9.26971H64.6377C64.1648 9.26971 63.907 9.01188 63.907 8.53893V7.44048C63.907 5.76382 63.2189 4.94609 61.6704 4.94609C60.0365 4.94609 59.4766 5.76382 59.4766 7.44048V24.6022C59.4766 26.2362 60.0365 27.0966 61.6704 27.0966C63.2189 27.0966 63.907 26.2362 63.907 24.6022V18.0878H62.746C62.273 18.0878 62.0152 17.83 62.0152 17.357V13.8725C62.0152 13.3996 62.273 13.1417 62.746 13.1417H69.0254C69.4984 13.1417 69.7562 13.3996 69.7562 13.8725V25.0325C69.7562 28.7306 68.3374 32 61.6704 32C55.005 32 53.5846 28.7306 53.5846 25.0325Z" fill="white"/>
<path d="M72.4459 25.0325V6.96754C72.4459 3.2679 73.8647 0.0427246 80.5317 0.0427246C87.1987 0.0427246 88.6175 3.2679 88.6175 6.96754V25.0325C88.6175 28.7306 87.1987 32 80.5317 32C73.8647 32 72.4459 28.7306 72.4459 25.0325ZM82.7682 24.6022V7.44048C82.7682 5.76382 82.1656 4.94609 80.5317 4.94609C78.8977 4.94609 78.3378 5.76382 78.3378 7.44048V24.6022C78.3378 26.2362 78.8977 27.0966 80.5317 27.0966C82.1656 27.0966 82.7682 26.2362 82.7682 24.6022Z" fill="white"/>
</g>
<defs>
<clipPath id="clip0">
<rect width="88.6175" height="32" fill="white"/>
</clipPath>
</defs>
</svg>
