<svg width="40" height="40" viewBox="0 0 40 40" fill="none" xmlns="http://www.w3.org/2000/svg">
<path d="M11.792 34.167C11.0693 34.167 10.4513 33.91 9.938 33.396C9.424 32.882 9.167 32.264 9.167 31.542V9.37499H7.5V7.29199H14.75V6.04199H25.25V7.29199H32.5V9.37499H30.833V31.542C30.833 32.264 30.576 32.882 30.062 33.396C29.5487 33.91 28.9307 34.167 28.208 34.167H11.792ZM28.708 9.37499H11.292V31.542C11.292 31.7087 11.3407 31.8407 11.438 31.938C11.5347 32.0347 11.6527 32.083 11.792 32.083H28.208C28.3473 32.083 28.4653 32.0277 28.562 31.917C28.6593 31.8057 28.708 31.6807 28.708 31.542V9.37499ZM15.833 28.625H17.917V12.833H15.833V28.625ZM22.083 28.625H24.167V12.833H22.083V28.625ZM11.292 9.37499V32.083V31.542V9.37499Z" fill="black"/>
</svg>
