<svg width="14" height="14" viewBox="0 0 14 14" fill="none" xmlns="http://www.w3.org/2000/svg">
<mask id="mask0_6390_686" style="mask-type:alpha" maskUnits="userSpaceOnUse" x="0" y="0" width="14" height="14">
<rect width="14" height="14" fill="#D9D9D9"/>
</mask>
<g mask="url(#mask0_6390_686)">
<path d="M6.24577 9.22903L9.76891 5.71699L8.931 4.87907L6.24577 7.54973L5.04803 6.36657L4.21013 7.20449L6.24577 9.22903ZM3.19183 12.029C2.85896 12.029 2.57401 11.9105 2.33697 11.6735C2.09992 11.4364 1.9814 11.1515 1.9814 10.8186V3.20231C1.9814 2.86944 2.09992 2.58449 2.33697 2.34745C2.57401 2.11041 2.85896 1.99189 3.19183 1.99189H5.57049C5.66454 1.68586 5.84134 1.43435 6.10088 1.23737C6.36042 1.04039 6.66012 0.941895 6.99998 0.941895C7.33984 0.941895 7.63953 1.04039 7.89907 1.23737C8.15861 1.43435 8.33541 1.68586 8.42946 1.99189H10.8081C11.141 1.99189 11.4259 2.11041 11.663 2.34745C11.9 2.58449 12.0186 2.86944 12.0186 3.20231V10.8186C12.0186 11.1515 11.9 11.4364 11.663 11.6735C11.4259 11.9105 11.141 12.029 10.8081 12.029H3.19183ZM3.19183 10.8186H10.8081V3.20231H3.19183V10.8186ZM6.99998 2.83836C7.10915 2.83836 7.19942 2.80266 7.2708 2.73128C7.34218 2.6599 7.37787 2.56963 7.37787 2.46046C7.37787 2.35129 7.34218 2.26101 7.2708 2.18963C7.19942 2.11825 7.10915 2.08256 6.99998 2.08256C6.89081 2.08256 6.80053 2.11825 6.72915 2.18963C6.65777 2.26101 6.62208 2.35129 6.62208 2.46046C6.62208 2.56963 6.65777 2.6599 6.72915 2.73128C6.80053 2.80266 6.89081 2.83836 6.99998 2.83836Z" fill="black"/>
</g>
</svg>
