<svg width="48" height="48" viewBox="0 0 48 48" fill="none" xmlns="http://www.w3.org/2000/svg">
<path d="M23 33.5H25.25V22H23V33.5ZM24 18.8C24.3667 18.8 24.6833 18.675 24.95 18.425C25.2167 18.175 25.35 17.85 25.35 17.45C25.35 17.05 25.225 16.725 24.975 16.475C24.725 16.225 24.4 16.1 24 16.1C23.6 16.1 23.275 16.225 23.025 16.475C22.775 16.725 22.65 17.05 22.65 17.45C22.65 17.85 22.775 18.175 23.025 18.425C23.275 18.675 23.6 18.8 24 18.8ZM24 43C21.3667 43 18.9 42.5 16.6 41.5C14.3 40.5 12.2917 39.1417 10.575 37.425C8.85833 35.7083 7.5 33.7 6.5 31.4C5.5 29.1 5 26.6333 5 24C5 21.3667 5.5 18.8917 6.5 16.575C7.5 14.2583 8.85833 12.25 10.575 10.55C12.2917 8.85 14.3 7.5 16.6 6.5C18.9 5.5 21.3667 5 24 5C26.6333 5 29.1083 5.5 31.425 6.5C33.7417 7.5 35.75 8.85 37.45 10.55C39.15 12.25 40.5 14.2583 41.5 16.575C42.5 18.8917 43 21.3667 43 24C43 26.6333 42.5 29.1 41.5 31.4C40.5 33.7 39.15 35.7083 37.45 37.425C35.75 39.1417 33.7417 40.5 31.425 41.5C29.1083 42.5 26.6333 43 24 43ZM24.05 40.75C28.6833 40.75 32.625 39.1167 35.875 35.85C39.125 32.5833 40.75 28.6167 40.75 23.95C40.75 19.3167 39.125 15.375 35.875 12.125C32.625 8.875 28.6667 7.25 24 7.25C19.3667 7.25 15.4167 8.875 12.15 12.125C8.88333 15.375 7.25 19.3333 7.25 24C7.25 28.6333 8.88333 32.5833 12.15 35.85C15.4167 39.1167 19.3833 40.75 24.05 40.75Z" fill="black"/>
</svg>
