<svg width="48" height="48" viewBox="0 0 48 48" fill="none" xmlns="http://www.w3.org/2000/svg">
<path d="M9.60005 38.75H11.6L33.7001 16.65L31.65 14.6L9.60005 36.7V38.75ZM38.55 15L33.3 9.8L35 8.1C35.5667 7.53333 36.2417 7.25 37.0251 7.25C37.8084 7.25 38.4667 7.53333 39 8.1L40.6501 9.7C41.0834 10.1333 41.3 10.6667 41.3 11.3C41.3 11.9333 41.0834 12.4667 40.6501 12.9L38.55 15ZM36.9501 16.6L12.5 41H7.30005V35.8L31.7001 11.4L36.9501 16.6ZM32.7001 15.6L31.65 14.6L33.7001 16.65L32.7001 15.6Z" fill="black"/>
</svg>
