<svg width="20" height="20" viewBox="0 0 20 20" fill="none" xmlns="http://www.w3.org/2000/svg">
<path d="M4.37499 15.75H5.47899L13 8.229L11.917 7.125L4.37499 14.667V15.75ZM15.812 7.312L12.812 4.292L13.583 3.521C13.9023 3.215 14.281 3.062 14.719 3.062C15.1563 3.062 15.5277 3.215 15.833 3.521L16.771 4.458C17.021 4.722 17.146 5.045 17.146 5.427C17.146 5.809 17.014 6.125 16.75 6.375L15.812 7.312ZM14.896 8.229L6.04199 17.083H3.04199V14.083L11.896 5.229L14.896 8.229ZM12.458 7.688L11.917 7.125L13 8.229L12.458 7.688Z" fill="black"/>
</svg>
