<svg width="40" height="40" viewBox="0 0 40 40" fill="none" xmlns="http://www.w3.org/2000/svg">
<path d="M30.125 36.25C28.903 36.25 27.8543 35.8127 26.979 34.938C26.1043 34.0627 25.667 33.014 25.667 31.792C25.667 31.5693 25.6877 31.333 25.729 31.083C25.771 30.833 25.8337 30.611 25.917 30.417L13.167 22.958C12.7503 23.4027 12.2573 23.764 11.688 24.042C11.118 24.3193 10.5137 24.458 9.87499 24.458C8.62499 24.458 7.56933 24.0277 6.70799 23.167C5.84733 22.3057 5.41699 21.25 5.41699 20C5.41699 18.75 5.84733 17.6943 6.70799 16.833C7.56933 15.9723 8.62499 15.542 9.87499 15.542C10.5137 15.542 11.111 15.667 11.667 15.917C12.2223 16.167 12.7223 16.528 13.167 17L25.917 9.583C25.8337 9.389 25.771 9.167 25.729 8.917C25.6877 8.667 25.667 8.43067 25.667 8.208C25.667 6.958 26.1043 5.90267 26.979 5.042C27.8543 4.18067 28.903 3.75 30.125 3.75C31.375 3.75 32.4307 4.18067 33.292 5.042C34.1527 5.90267 34.583 6.958 34.583 8.208C34.583 9.458 34.1527 10.5137 33.292 11.375C32.4307 12.2363 31.375 12.667 30.125 12.667C29.5137 12.667 28.9233 12.549 28.354 12.313C27.7847 12.0763 27.2917 11.736 26.875 11.292L14.125 18.583C14.1803 18.7777 14.229 19.007 14.271 19.271C14.3123 19.535 14.333 19.778 14.333 20C14.333 20.222 14.3123 20.4443 14.271 20.667C14.229 20.889 14.1803 21.111 14.125 21.333L26.875 28.708C27.2917 28.2913 27.7707 27.958 28.312 27.708C28.854 27.458 29.4583 27.333 30.125 27.333C31.375 27.333 32.4307 27.7637 33.292 28.625C34.1527 29.4863 34.583 30.542 34.583 31.792C34.583 33.042 34.1527 34.0973 33.292 34.958C32.4307 35.8193 31.375 36.25 30.125 36.25ZM30.125 10.583C30.7917 10.583 31.354 10.354 31.812 9.896C32.2707 9.43733 32.5 8.87467 32.5 8.208C32.5 7.54133 32.2707 6.979 31.812 6.521C31.354 6.06233 30.7917 5.833 30.125 5.833C29.4863 5.833 28.9377 6.06233 28.479 6.521C28.021 6.979 27.792 7.54133 27.792 8.208C27.792 8.87467 28.021 9.43733 28.479 9.896C28.9377 10.354 29.4863 10.583 30.125 10.583ZM9.87499 22.375C10.5417 22.375 11.104 22.146 11.562 21.688C12.0207 21.2293 12.25 20.6667 12.25 20C12.25 19.3333 12.0207 18.7707 11.562 18.312C11.104 17.854 10.5417 17.625 9.87499 17.625C9.20833 17.625 8.64599 17.854 8.18799 18.312C7.72933 18.7707 7.49999 19.3333 7.49999 20C7.49999 20.6667 7.72933 21.2293 8.18799 21.688C8.64599 22.146 9.20833 22.375 9.87499 22.375ZM30.125 34.167C30.7917 34.167 31.354 33.9377 31.812 33.479C32.2707 33.021 32.5 32.4587 32.5 31.792C32.5 31.1253 32.2707 30.5627 31.812 30.104C31.354 29.646 30.7917 29.417 30.125 29.417C29.4863 29.417 28.9377 29.646 28.479 30.104C28.021 30.5627 27.792 31.1253 27.792 31.792C27.792 32.4587 28.021 33.021 28.479 33.479C28.9377 33.9377 29.4863 34.167 30.125 34.167Z" fill="black"/>
</svg>
