<svg width="40" height="40" viewBox="0 0 40 40" fill="none" xmlns="http://www.w3.org/2000/svg">
<path d="M32.833 34.292L22.125 23.583C21.2917 24.3057 20.3263 24.8613 19.229 25.25C18.1317 25.6387 16.9997 25.833 15.833 25.833C12.9997 25.833 10.597 24.854 8.62499 22.896C6.65299 20.9373 5.66699 18.5553 5.66699 15.75C5.66699 12.9167 6.65299 10.5207 8.62499 8.562C10.597 6.604 12.986 5.625 15.792 5.625C18.5973 5.625 20.986 6.604 22.958 8.562C24.9307 10.5207 25.917 12.9167 25.917 15.75C25.917 16.9167 25.7153 18.0487 25.312 19.146C24.9093 20.2433 24.347 21.2223 23.625 22.083L34.333 32.75L32.833 34.292ZM15.792 23.75C18.042 23.75 19.9377 22.9723 21.479 21.417C23.021 19.861 23.792 17.972 23.792 15.75C23.792 13.5 23.021 11.5973 21.479 10.042C19.9377 8.486 18.042 7.708 15.792 7.708C13.5693 7.708 11.6733 8.486 10.104 10.042C8.53466 11.5973 7.74999 13.5 7.74999 15.75C7.74999 17.972 8.53466 19.861 10.104 21.417C11.6733 22.9723 13.5693 23.75 15.792 23.75Z" fill="black"/>
</svg>
