<svg width="20" height="20" viewBox="0 0 20 20" fill="none" xmlns="http://www.w3.org/2000/svg">
<path d="M11.292 10.75C10.7087 10.75 10.2153 10.5487 9.81201 10.146C9.40934 9.74333 9.20801 9.25033 9.20801 8.667C9.20801 8.097 9.40934 7.60733 9.81201 7.198C10.2153 6.788 10.7087 6.583 11.292 6.583C11.8753 6.583 12.3683 6.788 12.771 7.198C13.1737 7.60733 13.375 8.097 13.375 8.667C13.375 9.25033 13.1737 9.74333 12.771 10.146C12.3683 10.5487 11.8753 10.75 11.292 10.75ZM5.62501 12.833C5.26367 12.833 4.95134 12.7013 4.68801 12.438C4.42401 12.174 4.29201 11.8613 4.29201 11.5V5.854C4.29201 5.47933 4.42401 5.16333 4.68801 4.906C4.95134 4.64933 5.26367 4.521 5.62501 4.521H16.958C17.3193 4.521 17.632 4.64933 17.896 4.906C18.16 5.16333 18.292 5.47933 18.292 5.854V11.5C18.292 11.8747 18.16 12.1907 17.896 12.448C17.632 12.7047 17.3193 12.833 16.958 12.833H5.62501ZM6.70801 11.75H15.875C15.875 11.3753 16.007 11.0593 16.271 10.802C16.535 10.5453 16.8473 10.417 17.208 10.417V6.938C16.8473 6.938 16.535 6.806 16.271 6.542C16.007 6.278 15.875 5.96533 15.875 5.604H6.70801C6.70801 5.97933 6.57601 6.29533 6.31201 6.552C6.04867 6.80933 5.73634 6.938 5.37501 6.938V10.417C5.73634 10.417 6.04867 10.5487 6.31201 10.812C6.57601 11.076 6.70801 11.3887 6.70801 11.75ZM15.812 15.417H3.04201C2.68067 15.417 2.36801 15.2883 2.10401 15.031C1.84001 14.7743 1.70801 14.4583 1.70801 14.083V6.5H2.79201V14.083C2.79201 14.153 2.81967 14.212 2.87501 14.26C2.93034 14.3087 2.98601 14.333 3.04201 14.333H15.812V15.417ZM5.62501 11.75H5.37501V5.604H5.62501C5.55567 5.604 5.49667 5.62833 5.44801 5.677C5.39934 5.72566 5.37501 5.78466 5.37501 5.854V11.5C5.37501 11.5693 5.39934 11.6283 5.44801 11.677C5.49667 11.7257 5.55567 11.75 5.62501 11.75Z" fill="black"/>
</svg>
