<svg width="20" height="20" viewBox="0 0 20 20" fill="none" xmlns="http://www.w3.org/2000/svg">
<mask id="mask0_2841_90349" style="mask-type:alpha" maskUnits="userSpaceOnUse" x="0" y="0" width="20" height="20">
<rect width="20" height="20" fill="#D9D9D9"/>
</mask>
<g mask="url(#mask0_2841_90349)">
<path d="M9.99999 15.396C9.69466 15.396 9.43766 15.2883 9.22899 15.073C9.02099 14.8577 8.91699 14.604 8.91699 14.312C8.91699 14.0067 9.02466 13.75 9.23999 13.542C9.45466 13.3333 9.70799 13.229 9.99999 13.229C10.3053 13.229 10.5623 13.3333 10.771 13.542C10.979 13.75 11.083 14.0067 11.083 14.312C11.083 14.618 10.9753 14.875 10.76 15.083C10.5453 15.2917 10.292 15.396 9.99999 15.396ZM9.99999 11.083C9.69466 11.083 9.43766 10.9753 9.22899 10.76C9.02099 10.5453 8.91699 10.292 8.91699 10C8.91699 9.69467 9.02466 9.43767 9.23999 9.229C9.45466 9.021 9.70799 8.917 9.99999 8.917C10.3053 8.917 10.5623 9.02467 10.771 9.24C10.979 9.45467 11.083 9.708 11.083 10C11.083 10.3053 10.9753 10.5623 10.76 10.771C10.5453 10.979 10.292 11.083 9.99999 11.083ZM9.99999 6.771C9.69466 6.771 9.43766 6.66667 9.22899 6.458C9.02099 6.25 8.91699 5.99334 8.91699 5.688C8.91699 5.382 9.02466 5.125 9.23999 4.917C9.45466 4.70834 9.70799 4.604 9.99999 4.604C10.3053 4.604 10.5623 4.71167 10.771 4.927C10.979 5.14234 11.083 5.396 11.083 5.688C11.083 5.99334 10.9753 6.25 10.76 6.458C10.5453 6.66667 10.292 6.771 9.99999 6.771Z" fill="black"/>
</g>
</svg>
