<svg width="48" height="48" viewBox="0 0 48 48" fill="none" xmlns="http://www.w3.org/2000/svg">
<mask id="mask0_2841_90352" style="mask-type:alpha" maskUnits="userSpaceOnUse" x="0" y="0" width="48" height="48">
<rect width="48" height="48" fill="#D9D9D9"/>
</mask>
<g mask="url(#mask0_2841_90352)">
<path d="M24 38.55C23.5 38.55 23.075 38.3667 22.725 38C22.375 37.6333 22.2 37.2 22.2 36.7C22.2 36.2 22.375 35.7667 22.725 35.4C23.075 35.0333 23.5 34.85 24 34.85C24.5 34.85 24.925 35.0333 25.275 35.4C25.625 35.7667 25.8 36.2 25.8 36.7C25.8 37.2333 25.625 37.675 25.275 38.025C24.925 38.375 24.5 38.55 24 38.55ZM24 25.8C23.5 25.8 23.075 25.625 22.725 25.275C22.375 24.925 22.2 24.5 22.2 24C22.2 23.5 22.375 23.075 22.725 22.725C23.075 22.375 23.5 22.2 24 22.2C24.5 22.2 24.925 22.375 25.275 22.725C25.625 23.075 25.8 23.5 25.8 24C25.8 24.5 25.625 24.925 25.275 25.275C24.925 25.625 24.5 25.8 24 25.8ZM24 13.15C23.5 13.15 23.075 12.9667 22.725 12.6C22.375 12.2333 22.2 11.8 22.2 11.3C22.2 10.7667 22.375 10.325 22.725 9.97501C23.075 9.62501 23.5 9.45001 24 9.45001C24.5 9.45001 24.925 9.63335 25.275 10C25.625 10.3667 25.8 10.8 25.8 11.3C25.8 11.8 25.625 12.2333 25.275 12.6C24.925 12.9667 24.5 13.15 24 13.15Z" fill="black"/>
</g>
</svg>
