<svg width="14" height="14" viewBox="0 0 14 14" fill="none" xmlns="http://www.w3.org/2000/svg">
<mask id="mask0_6377_342" style="mask-type:alpha" maskUnits="userSpaceOnUse" x="0" y="0" width="14" height="14">
<rect width="14" height="14" fill="#D9D9D9"/>
</mask>
<g mask="url(#mask0_6377_342)">
<path d="M5.01159 13.0999L3.89343 11.2428L1.78138 10.7657L1.97794 8.61334L0.546555 6.99998L1.97794 5.38663L1.78138 3.23431L3.89343 2.75718L5.01159 0.900024L7 1.7522L8.98841 0.900024L10.1066 2.75718L12.2186 3.23431L12.0221 5.38663L13.4534 6.99998L12.0221 8.61334L12.2186 10.7657L10.1066 11.2428L8.98841 13.0999L7 12.2478L5.01159 13.0999ZM5.50078 11.5706L7 10.9324L8.49923 11.5706L9.3346 10.17L10.9178 9.81235L10.779 8.20754L11.8407 6.99998L10.779 5.79243L10.9178 4.18762L9.3346 3.83001L8.49923 2.42938L7 3.06756L5.50078 2.42938L4.6654 3.83001L3.08216 4.17303L3.22102 5.79243L2.15928 6.99998L3.2356 8.20754L3.08216 9.82693L4.6654 10.1845L5.50078 11.5706ZM6.25625 9.13834L9.76544 5.64373L8.97985 4.86512L6.25625 7.57413L5.02015 6.34563L4.23456 7.13123L6.25625 9.13834Z" fill="black"/>
</g>
</svg>
