<svg width="20" height="20" viewBox="0 0 20 20" fill="none" xmlns="http://www.w3.org/2000/svg">
<path d="M14.5 17.792C13.8613 17.792 13.3197 17.5697 12.875 17.125C12.4303 16.6803 12.208 16.1387 12.208 15.5C12.208 15.3887 12.215 15.281 12.229 15.177C12.243 15.073 12.2707 14.9653 12.312 14.854L7.06201 11.625C6.86801 11.861 6.63567 12.031 6.36501 12.135C6.09367 12.2397 5.80534 12.292 5.50001 12.292C4.86134 12.292 4.31967 12.0697 3.87501 11.625C3.43034 11.1803 3.20801 10.6387 3.20801 10C3.20801 9.36133 3.43034 8.81967 3.87501 8.375C4.31967 7.93033 4.86134 7.708 5.50001 7.708C5.80534 7.708 6.09367 7.76367 6.36501 7.875C6.63567 7.98633 6.86801 8.153 7.06201 8.375L12.312 5.146C12.2707 5.03467 12.243 4.927 12.229 4.823C12.215 4.719 12.208 4.61133 12.208 4.5C12.208 3.86133 12.4303 3.31967 12.875 2.875C13.3197 2.43033 13.8613 2.208 14.5 2.208C15.1387 2.208 15.6803 2.43033 16.125 2.875C16.5697 3.31967 16.792 3.86133 16.792 4.5C16.792 5.13867 16.5697 5.68033 16.125 6.125C15.6803 6.56967 15.1387 6.792 14.5 6.792C14.1947 6.792 13.9063 6.73967 13.635 6.635C13.3643 6.531 13.132 6.361 12.938 6.125L7.68801 9.354C7.72934 9.46533 7.75701 9.56967 7.77101 9.667C7.78501 9.76367 7.79201 9.87467 7.79201 10C7.79201 10.1113 7.78501 10.219 7.77101 10.323C7.75701 10.427 7.72934 10.5347 7.68801 10.646L12.938 13.875C13.132 13.625 13.3643 13.4513 13.635 13.354C13.9063 13.2567 14.1947 13.208 14.5 13.208C15.1387 13.208 15.6803 13.4303 16.125 13.875C16.5697 14.3197 16.792 14.8613 16.792 15.5C16.792 16.1387 16.5697 16.6803 16.125 17.125C15.6803 17.5697 15.1387 17.792 14.5 17.792ZM14.5 5.708C14.8333 5.708 15.118 5.59 15.354 5.354C15.59 5.118 15.708 4.83333 15.708 4.5C15.708 4.16667 15.59 3.882 15.354 3.646C15.118 3.41 14.8333 3.292 14.5 3.292C14.1667 3.292 13.882 3.41 13.646 3.646C13.41 3.882 13.292 4.16667 13.292 4.5C13.292 4.83333 13.41 5.118 13.646 5.354C13.882 5.59 14.1667 5.708 14.5 5.708ZM5.50001 11.208C5.83334 11.208 6.11801 11.09 6.35401 10.854C6.59001 10.618 6.70801 10.3333 6.70801 10C6.70801 9.66667 6.59001 9.382 6.35401 9.146C6.11801 8.91 5.83334 8.792 5.50001 8.792C5.16667 8.792 4.88201 8.91 4.64601 9.146C4.41001 9.382 4.29201 9.66667 4.29201 10C4.29201 10.3333 4.41001 10.618 4.64601 10.854C4.88201 11.09 5.16667 11.208 5.50001 11.208ZM14.5 16.708C14.8333 16.708 15.118 16.59 15.354 16.354C15.59 16.118 15.708 15.8333 15.708 15.5C15.708 15.1667 15.59 14.882 15.354 14.646C15.118 14.41 14.8333 14.292 14.5 14.292C14.1667 14.292 13.882 14.41 13.646 14.646C13.41 14.882 13.292 15.1667 13.292 15.5C13.292 15.8333 13.41 16.118 13.646 16.354C13.882 16.59 14.1667 16.708 14.5 16.708Z" fill="black"/>
</svg>
