<svg width="20" height="20" viewBox="0 0 20 20" fill="none" xmlns="http://www.w3.org/2000/svg">
<path d="M12.7329 15.266L14 14.3001L15.2672 15.266L14.7949 13.7306L16.2111 12.6035H14.5093L14 11.0431L13.5033 12.6035H11.7889L13.2177 13.7306L12.7329 15.266ZM11.5152 17L12.4598 13.9535L10 11.9597H13.031L14 9.00001L14.969 11.9597H18L15.5403 13.9535L16.4848 17L14 15.1174L11.5152 17Z" fill="black"/>
<path d="M3.20801 12.542V11.458H8.79201V12.542H3.20801ZM3.20801 9.41701V8.33301H11.792V9.41701H3.20801ZM3.20801 6.29201V5.20801H11.792V6.29201H3.20801Z" fill="black"/>
</svg>
