<svg width="48" height="48" viewBox="0 0 48 48" fill="none" xmlns="http://www.w3.org/2000/svg">
<mask id="mask0_2159_63965" style="mask-type:alpha" maskUnits="userSpaceOnUse" x="0" y="0" width="48" height="48">
<rect width="48" height="48" fill="#D9D9D9"/>
</mask>
<g mask="url(#mask0_2159_63965)">
<path d="M7.9 39C7.1 39 6.41667 38.7167 5.85 38.15C5.28333 37.5833 5 36.9 5 36.1V11.9C5 11.1 5.28333 10.4167 5.85 9.85C6.41667 9.28333 7.1 9 7.9 9H40.1C40.9 9 41.5833 9.28333 42.15 9.85C42.7167 10.4167 43 11.1 43 11.9V36.1C43 36.9 42.7167 37.5833 42.15 38.15C41.5833 38.7167 40.9 39 40.1 39H7.9ZM24 24.3L7.25 13.25V36.1C7.25 36.3 7.30833 36.4583 7.425 36.575C7.54167 36.6917 7.7 36.75 7.9 36.75H40.1C40.3 36.75 40.4583 36.6917 40.575 36.575C40.6917 36.4583 40.75 36.3 40.75 36.1V13.25L24 24.3ZM24 21.9L40.3 11.25H7.75L24 21.9ZM7.25 13.25V11.25V36.1C7.25 36.3 7.30833 36.4583 7.425 36.575C7.54167 36.6917 7.7 36.75 7.9 36.75H7.25V36.1V13.25Z" fill="#1C1B1F"/>
</g>
</svg>
