<svg width="20" height="20" viewBox="0 0 20 20" fill="none" xmlns="http://www.w3.org/2000/svg">
<mask id="mask0_2159_63956" style="mask-type:alpha" maskUnits="userSpaceOnUse" x="0" y="0" width="20" height="20">
<rect width="20" height="20" fill="#D9D9D9"/>
</mask>
<g mask="url(#mask0_2159_63956)">
<path d="M3.74999 15.583C3.37533 15.583 3.05933 15.4547 2.80199 15.198C2.54533 14.9407 2.41699 14.6247 2.41699 14.25V5.74999C2.41699 5.37533 2.54533 5.05933 2.80199 4.80199C3.05933 4.54533 3.37533 4.41699 3.74999 4.41699H16.25C16.6247 4.41699 16.9407 4.54533 17.198 4.80199C17.4547 5.05933 17.583 5.37533 17.583 5.74999V14.25C17.583 14.6247 17.4547 14.9407 17.198 15.198C16.9407 15.4547 16.6247 15.583 16.25 15.583H3.74999ZM9.99999 10.625L3.49999 6.81199V14.25C3.49999 14.3193 3.52433 14.3783 3.57299 14.427C3.62166 14.4757 3.68066 14.5 3.74999 14.5H16.25C16.3193 14.5 16.3783 14.4757 16.427 14.427C16.4757 14.3783 16.5 14.3193 16.5 14.25V6.81199L9.99999 10.625ZM9.99999 9.22899L16.375 5.49999H3.62499L9.99999 9.22899ZM3.49999 6.81199V5.49999V14.25C3.49999 14.3193 3.52433 14.3783 3.57299 14.427C3.62166 14.4757 3.68066 14.5 3.74999 14.5H3.49999V14.25V6.81199Z" fill="#1C1B1F"/>
</g>
</svg>
