<svg width="12" height="12" viewBox="0 0 12 12" fill="none" xmlns="http://www.w3.org/2000/svg">
<mask id="mask0_6377_135" style="mask-type:alpha" maskUnits="userSpaceOnUse" x="0" y="0" width="12" height="12">
<rect width="12" height="12" fill="#D9D9D9"/>
</mask>
<g mask="url(#mask0_6377_135)">
<path d="M5.27103 10.0969C5.38002 10.2056 5.51137 10.26 5.66505 10.26C5.81873 10.26 5.94995 10.2056 6.05871 10.0969L9.73274 6.4238C9.78499 6.3694 9.82593 6.30703 9.85556 6.23668C9.88519 6.16633 9.9 6.09609 9.9 6.02594V3.0168C9.9 2.86518 9.84508 2.73447 9.73525 2.62467C9.62542 2.51486 9.49468 2.45996 9.34302 2.45996H6.3331C6.26275 2.45996 6.19505 2.47186 6.13001 2.49566C6.06498 2.51946 6.00374 2.55947 5.9463 2.61571L2.26934 6.2879C2.15784 6.39938 2.1014 6.53159 2.10003 6.68452C2.09866 6.83745 2.15235 6.96829 2.26111 7.07702L5.27103 10.0969ZM8.3152 4.58026C8.16657 4.58026 8.04007 4.52825 7.9357 4.42423C7.83134 4.32021 7.77916 4.19391 7.77916 4.04532C7.77916 3.89672 7.83118 3.77026 7.93522 3.66592C8.03927 3.56158 8.1656 3.50941 8.31423 3.50941C8.46287 3.50941 8.58937 3.56142 8.69373 3.66544C8.7981 3.76945 8.85028 3.89576 8.85028 4.04435C8.85028 4.19294 8.79826 4.31941 8.69421 4.42375C8.59017 4.52809 8.46383 4.58026 8.3152 4.58026Z" fill="black"/>
</g>
</svg>
