<svg width="14" height="14" viewBox="0 0 14 14" fill="none" xmlns="http://www.w3.org/2000/svg">
<mask id="mask0_6377_363" style="mask-type:alpha" maskUnits="userSpaceOnUse" x="0" y="0" width="14" height="14">
<rect width="14" height="14" fill="#D9D9D9"/>
</mask>
<g mask="url(#mask0_6377_363)">
<path d="M6.14953 11.7797C6.2767 11.9066 6.42993 11.97 6.60922 11.97C6.78852 11.97 6.94161 11.9066 7.0685 11.7797L11.3549 7.49447C11.4158 7.43101 11.4636 7.35824 11.4982 7.27617C11.5327 7.1941 11.55 7.11214 11.55 7.0303V3.51964C11.55 3.34275 11.4859 3.19026 11.3578 3.06216C11.2297 2.93405 11.0771 2.87 10.9002 2.87H7.38862C7.30654 2.87 7.22756 2.88388 7.15168 2.91165C7.07581 2.93941 7.00436 2.98609 6.93735 3.0517L2.64757 7.33593C2.51748 7.46598 2.45163 7.62022 2.45003 7.79865C2.44843 7.97707 2.51108 8.12971 2.63796 8.25657L6.14953 11.7797ZM9.70107 5.34367C9.52766 5.34367 9.38008 5.283 9.25832 5.16164C9.13656 5.04029 9.07568 4.89293 9.07568 4.71957C9.07568 4.54622 9.13637 4.39867 9.25776 4.27694C9.37914 4.15522 9.52654 4.09435 9.69994 4.09435C9.87335 4.09435 10.0209 4.15503 10.1427 4.27638C10.2644 4.39774 10.3253 4.54509 10.3253 4.71845C10.3253 4.89181 10.2646 5.03935 10.1432 5.16108C10.0219 5.28281 9.87447 5.34367 9.70107 5.34367Z" fill="black"/>
</g>
</svg>
