<svg width="20" height="20" viewBox="0 0 20 20" fill="none" xmlns="http://www.w3.org/2000/svg">
<path d="M4.333 16.583C3.95833 16.583 3.64233 16.4547 3.385 16.198C3.12833 15.9407 3 15.6247 3 15.25V4.333C3 3.95833 3.12833 3.64233 3.385 3.385C3.64233 3.12833 3.95833 3 4.333 3H9.604V4.083H4.333C4.27767 4.083 4.22233 4.11067 4.167 4.166C4.111 4.222 4.083 4.27767 4.083 4.333V15.25C4.083 15.3053 4.111 15.3607 4.167 15.416C4.22233 15.472 4.27767 15.5 4.333 15.5H9.604V16.583H4.333ZM13.104 12.687L12.333 11.916L13.917 10.333H7.604V9.25H13.917L12.333 7.666L13.104 6.895L16 9.791L13.104 12.687Z" fill="black"/>
</svg>
