<svg width="48" height="48" viewBox="0 0 48 48" fill="none" xmlns="http://www.w3.org/2000/svg">
<path d="M9.9 42C9.1 42 8.41667 41.7167 7.85 41.15C7.28333 40.5833 7 39.9 7 39.1V9.9C7 9.1 7.28333 8.41667 7.85 7.85C8.41667 7.28333 9.1 7 9.9 7H23.7V9.25H9.9C9.73333 9.25 9.58333 9.31667 9.45 9.45C9.31667 9.58333 9.25 9.73333 9.25 9.9V39.1C9.25 39.2667 9.31667 39.4167 9.45 39.55C9.58333 39.6833 9.73333 39.75 9.9 39.75H23.7V42H9.9ZM33 32.1L31.35 30.5L36.25 25.65H18.6V23.35H36.2L31.3 18.5L32.95 16.85L40.6 24.55L33 32.1Z" fill="black"/>
</svg>
