<svg width="20" height="20" viewBox="0 0 20 20" fill="none" xmlns="http://www.w3.org/2000/svg">
<path d="M11.708 7.833V6.562C12.1247 6.40933 12.5727 6.29833 13.052 6.229C13.5313 6.15966 14.014 6.125 14.5 6.125C14.792 6.125 15.0837 6.139 15.375 6.167C15.6663 6.19433 15.9857 6.236 16.333 6.292V7.562C15.9443 7.47933 15.604 7.424 15.312 7.396C15.0207 7.368 14.75 7.354 14.5 7.354C14.028 7.354 13.5557 7.39233 13.083 7.469C12.611 7.545 12.1527 7.66633 11.708 7.833ZM11.708 12.729V11.458C12.0833 11.3193 12.5037 11.205 12.969 11.115C13.4343 11.0243 13.9447 10.979 14.5 10.979C14.8473 10.979 15.1667 10.9963 15.458 11.031C15.75 11.0657 16.0417 11.118 16.333 11.188V12.438C15.9443 12.354 15.604 12.2983 15.312 12.271C15.0207 12.243 14.75 12.229 14.5 12.229C14.028 12.229 13.5557 12.2707 13.083 12.354C12.611 12.4373 12.1527 12.5623 11.708 12.729ZM11.708 10.292V9C12.1387 8.84733 12.597 8.73266 13.083 8.656C13.569 8.58 14.0413 8.542 14.5 8.542C14.8473 8.542 15.1667 8.55933 15.458 8.594C15.75 8.62866 16.0417 8.68066 16.333 8.75V10C15.9997 9.91666 15.6837 9.861 15.385 9.833C15.087 9.80566 14.792 9.792 14.5 9.792C14.0553 9.792 13.6003 9.83366 13.135 9.917C12.6703 10.0003 12.1947 10.1253 11.708 10.292ZM5.49999 14.021C6.19466 14.021 6.87166 14.1077 7.53099 14.281C8.19099 14.455 8.83333 14.6877 9.45799 14.979V5.542C8.86066 5.19466 8.22866 4.93066 7.56199 4.75C6.89533 4.56933 6.20799 4.479 5.49999 4.479C4.98599 4.479 4.50333 4.51733 4.05199 4.594C3.60066 4.67 3.13899 4.79833 2.66699 4.979C2.61099 5.007 2.56933 5.04166 2.54199 5.083C2.51399 5.125 2.49999 5.16666 2.49999 5.208V14.25C2.49999 14.3333 2.52766 14.3923 2.58299 14.427C2.63899 14.4617 2.69466 14.4653 2.74999 14.438C3.15266 14.2847 3.58333 14.177 4.04199 14.115C4.49999 14.0523 4.98599 14.021 5.49999 14.021ZM10.542 14.979C11.1667 14.6597 11.809 14.42 12.469 14.26C13.1283 14.1007 13.8053 14.021 14.5 14.021C15.014 14.021 15.5037 14.0453 15.969 14.094C16.4343 14.1427 16.8613 14.2573 17.25 14.438C17.3053 14.4653 17.361 14.4617 17.417 14.427C17.4723 14.3923 17.5 14.3333 17.5 14.25V5.208C17.5 5.16666 17.486 5.125 17.458 5.083C17.4307 5.04166 17.389 5.007 17.333 4.979C16.847 4.82633 16.3817 4.705 15.937 4.615C15.493 4.52433 15.014 4.479 14.5 4.479C13.792 4.479 13.1047 4.56933 12.438 4.75C11.7713 4.93066 11.1393 5.19466 10.542 5.542V14.979ZM9.99999 16.479C9.31933 16.0763 8.60399 15.7467 7.85399 15.49C7.10399 15.2327 6.31933 15.104 5.49999 15.104C5.04133 15.104 4.58633 15.1353 4.13499 15.198C3.68366 15.2607 3.24266 15.3683 2.81199 15.521C2.47866 15.6457 2.16299 15.6073 1.86499 15.406C1.56633 15.2047 1.41699 14.9167 1.41699 14.542V5.062C1.41699 4.84 1.47599 4.63533 1.59399 4.448C1.71199 4.26066 1.87499 4.12533 2.08299 4.042C2.62499 3.81933 3.18399 3.656 3.75999 3.552C4.33666 3.448 4.91666 3.396 5.49999 3.396C6.29199 3.396 7.06966 3.49666 7.83299 3.698C8.59699 3.89933 9.31933 4.19433 9.99999 4.583C10.6947 4.20833 11.4203 3.91666 12.177 3.708C12.9337 3.5 13.708 3.396 14.5 3.396C15.0833 3.396 15.6633 3.448 16.24 3.552C16.816 3.656 17.375 3.81933 17.917 4.042C18.125 4.12533 18.2917 4.26066 18.417 4.448C18.5417 4.63533 18.604 4.84 18.604 5.062V14.542C18.604 14.9027 18.493 15.1907 18.271 15.406C18.049 15.6213 17.8127 15.6803 17.562 15.583C17.062 15.4023 16.5587 15.2773 16.052 15.208C15.5453 15.1387 15.028 15.104 14.5 15.104C13.6807 15.104 12.896 15.2327 12.146 15.49C11.396 15.7467 10.6807 16.0763 9.99999 16.479Z" fill="black"/>
</svg>
