<svg width="20" height="20" viewBox="0 0 20 20" fill="none" xmlns="http://www.w3.org/2000/svg">
<path d="M15.229 16.562L10.833 12.167L11.812 11.188L16.208 15.583L15.229 16.562ZM4.35401 16.562L3.35401 15.583L8.81201 10.125L7.14601 8.458L6.41701 9.188L5.47901 8.229V9.583L5.00001 10.062L2.83301 7.896L3.31201 7.438H4.66701L4.02101 6.792L6.45801 4.354C6.65267 4.15934 6.87501 4.01 7.12501 3.906C7.37501 3.802 7.64601 3.75 7.93801 3.75C8.24334 3.75 8.52101 3.802 8.77101 3.906C9.02101 4.01 9.24334 4.15934 9.43801 4.354L7.89601 5.875L8.81201 6.792L8.12501 7.479L9.79201 9.146L11.729 7.208C11.6317 7 11.5587 6.79867 11.51 6.604C11.462 6.40934 11.438 6.201 11.438 5.979C11.438 5.285 11.681 4.69467 12.167 4.208C12.653 3.722 13.2433 3.479 13.938 3.479C14.1047 3.479 14.2643 3.493 14.417 3.521C14.5697 3.54834 14.7223 3.59 14.875 3.646L13.229 5.292L14.625 6.708L16.271 5.062C16.3403 5.18734 16.3853 5.33 16.406 5.49C16.4273 5.64934 16.438 5.81234 16.438 5.979C16.438 6.67367 16.1947 7.264 15.708 7.75C15.222 8.236 14.632 8.479 13.938 8.479C13.7153 8.479 13.5067 8.45467 13.312 8.406C13.118 8.35734 12.9237 8.27767 12.729 8.167L4.35401 16.562Z" fill="black"/>
</svg>
