<svg width="48" height="48" viewBox="0 0 48 48" fill="none" xmlns="http://www.w3.org/2000/svg">
<path d="M37.4001 40.95L25.6 29.1L27.75 26.95L39.6 38.75L37.4001 40.95ZM9.40005 40.95L7.25005 38.75L21.2 24.8L15.6 19.15L14.55 20.25L12.55 18.25V22.2L11.45 23.3L5.80005 17.6L6.90005 16.5H10.9L8.75005 14.4L14.05 9.1C14.55 8.6 15.0917 8.25833 15.675 8.075C16.2584 7.89167 16.9 7.8 17.6 7.8C18.3 7.8 18.95 7.91666 19.55 8.15C20.15 8.38333 20.6834 8.76667 21.15 9.3L16.65 13.75L18.95 16.05L17.85 17.15L23.35 22.65L29.55 16.45C29.25 15.9833 29.0167 15.475 28.85 14.925C28.6834 14.375 28.6 13.7833 28.6 13.15C28.6 11.4833 29.2 10.0583 30.4 8.875C31.6 7.69167 33.0167 7.1 34.6501 7.1C35.0834 7.1 35.4584 7.13333 35.7751 7.2C36.0917 7.26667 36.35 7.38333 36.55 7.55L32.55 11.55L36.2001 15.25L40.25 11.2C40.3834 11.4333 40.4917 11.725 40.5751 12.075C40.6584 12.425 40.7001 12.8 40.7001 13.2C40.7001 14.8667 40.1084 16.3 38.925 17.5C37.7417 18.7 36.3167 19.3 34.6501 19.3C34.0501 19.3 33.5167 19.2417 33.05 19.125C32.5834 19.0083 32.15 18.8333 31.75 18.6L9.40005 40.95Z" fill="black"/>
</svg>
