<svg width="48" height="48" viewBox="0 0 48 48" fill="none" xmlns="http://www.w3.org/2000/svg">
<path d="M7.9 35C7.1 35 6.41667 34.7167 5.85 34.15C5.28333 33.5833 5 32.9 5 32.1V15.9C5 15.1333 5.28333 14.4583 5.85 13.875C6.41667 13.2917 7.1 13 7.9 13H40.1C40.9 13 41.5833 13.2917 42.15 13.875C42.7167 14.4583 43 15.1333 43 15.9V32.1C43 32.9 42.7167 33.5833 42.15 34.15C41.5833 34.7167 40.9 35 40.1 35H7.9ZM7.9 32.75H40.1C40.2667 32.75 40.4167 32.6833 40.55 32.55C40.6833 32.4167 40.75 32.2667 40.75 32.1V15.9C40.75 15.7333 40.6833 15.5833 40.55 15.45C40.4167 15.3167 40.2667 15.25 40.1 15.25H33.85V23.25H31.6V15.25H25.15V23.25H22.85V15.25H16.4V23.25H14.15V15.25H7.9C7.73333 15.25 7.58333 15.3167 7.45 15.45C7.31667 15.5833 7.25 15.7333 7.25 15.9V32.1C7.25 32.2667 7.31667 32.4167 7.45 32.55C7.58333 32.6833 7.73333 32.75 7.9 32.75ZM14.15 23.25H16.4H14.15ZM22.85 23.25H25.15H22.85ZM31.6 23.25H33.85H31.6Z" fill="black"/>
</svg>
