<svg width="20" height="20" viewBox="0 0 20 20" fill="none" xmlns="http://www.w3.org/2000/svg">
<path d="M3.66701 14.583C3.22234 14.583 2.84734 14.4303 2.54201 14.125C2.23601 13.8197 2.08301 13.4447 2.08301 13V6.99999C2.08301 6.55533 2.23601 6.18033 2.54201 5.87499C2.84734 5.56966 3.22234 5.41699 3.66701 5.41699H16.333C16.7777 5.41699 17.1527 5.56966 17.458 5.87499C17.764 6.18033 17.917 6.55533 17.917 6.99999V13C17.917 13.4447 17.764 13.8197 17.458 14.125C17.1527 14.4303 16.7777 14.583 16.333 14.583H3.66701ZM3.66701 13.25H16.333C16.389 13.25 16.4447 13.2223 16.5 13.167C16.5553 13.111 16.583 13.0553 16.583 13V6.99999C16.583 6.94466 16.5553 6.88899 16.5 6.83299C16.4447 6.77766 16.389 6.74999 16.333 6.74999H14.25V9.93799H12.917V6.74999H10.75V9.93799H9.41701V6.74999H7.25001V9.93799H5.91701V6.74999H3.66701C3.61101 6.74999 3.55534 6.77766 3.50001 6.83299C3.44467 6.88899 3.41701 6.94466 3.41701 6.99999V13C3.41701 13.0553 3.44467 13.111 3.50001 13.167C3.55534 13.2223 3.61101 13.25 3.66701 13.25ZM5.91701 9.93799H7.25001H5.91701ZM9.41701 9.93799H10.75H9.41701ZM12.917 9.93799H14.25H12.917Z" fill="black"/>
</svg>
