<svg width="48" height="48" viewBox="0 0 48 48" fill="none" xmlns="http://www.w3.org/2000/svg">
<mask id="mask0_3912_157524" style="mask-type:alpha" maskUnits="userSpaceOnUse" x="0" y="0" width="48" height="48">
<rect width="48" height="48" fill="#D9D9D9"/>
</mask>
<g mask="url(#mask0_3912_157524)">
<path d="M10.75 42.6C9.98336 42.6 9.31669 42.3166 8.75002 41.75C8.18336 41.1833 7.90002 40.5 7.90002 39.7V12.75H10.15V39.7C10.15 39.8666 10.2167 40.0083 10.35 40.125C10.4834 40.2416 10.6167 40.3 10.75 40.3H31.4V42.6H10.75ZM16.3 37.05C15.5334 37.05 14.8584 36.7666 14.275 36.2C13.6917 35.6333 13.4 34.95 13.4 34.15V8.44998C13.4 7.68331 13.6917 7.01664 14.275 6.44998C14.8584 5.88331 15.5334 5.59998 16.3 5.59998H36C36.8 5.59998 37.4834 5.88331 38.05 6.44998C38.6167 7.01664 38.9 7.68331 38.9 8.44998V34.15C38.9 34.95 38.6167 35.6333 38.05 36.2C37.4834 36.7666 36.8 37.05 36 37.05H16.3ZM16.3 34.8H36C36.1667 34.8 36.3084 34.7333 36.425 34.6C36.5417 34.4666 36.6 34.3166 36.6 34.15V8.44998C36.6 8.31664 36.5417 8.18331 36.425 8.04998C36.3084 7.91664 36.1667 7.84998 36 7.84998H16.3C16.1667 7.84998 16.0334 7.91664 15.9 8.04998C15.7667 8.18331 15.7 8.31664 15.7 8.44998V34.15C15.7 34.3166 15.7667 34.4666 15.9 34.6C16.0334 34.7333 16.1667 34.8 16.3 34.8Z" fill="black"/>
</g>
</svg>
