<svg width="20" height="20" viewBox="0 0 20 20" fill="none" xmlns="http://www.w3.org/2000/svg">
<g clip-path="url(#clip0_2150_64072)">
<path d="M6.33297 10.2519L7.16325 5.01868C6.83617 5.01868 6.27636 5.01868 6.27636 5.01868C5.86123 5.01868 5.32658 4.78596 5.16933 4.35824C5.11901 4.21357 4.9995 3.71667 5.68511 3.23234C5.93042 3.06251 6.08767 2.87381 6.11911 2.72914C6.15056 2.57818 6.11283 2.4461 6.0059 2.34546C5.85494 2.20079 5.55931 2.11902 5.18191 2.11902C4.54663 2.11902 4.10004 2.48384 4.05601 2.74801C4.02456 2.943 4.17552 3.10025 4.30761 3.20089C4.70388 3.49652 4.79823 3.92423 4.55292 4.32679C4.30132 4.74193 3.75409 5.01239 3.16913 5.01868C3.16913 5.01868 2.59045 5.01868 2.26338 5.01868C2.1879 5.52817 0.955067 13.3403 0.860718 13.9567H5.7543C5.79833 13.6862 6.02477 12.2081 6.33297 10.2519Z" fill="#1D1D1B"/>
<path d="M0.596535 15.7683H2.60303C3.45846 15.7683 3.66603 16.2023 3.60313 16.5986C3.55281 16.9194 3.33266 17.1584 2.95527 17.3156C3.4333 17.498 3.622 17.7811 3.55281 18.2277C3.46475 18.7875 2.98043 19.2026 2.34514 19.2026H0.0618896L0.596535 15.7683ZM1.92371 17.1898C2.31369 17.1898 2.4961 16.9823 2.53384 16.737C2.57158 16.4728 2.45207 16.2904 2.06209 16.2904H1.71615L1.57777 17.1898H1.92371ZM1.70986 18.668C2.11241 18.668 2.34514 18.5044 2.40175 18.1711C2.44578 17.8817 2.28224 17.7119 1.89226 17.7119H1.50229L1.35133 18.6743H1.70986V18.668Z" fill="#1D1D1B"/>
<path d="M6.36431 19.2278C5.84225 19.2655 5.59065 19.2089 5.46485 18.9825C5.18809 19.1523 4.87988 19.2403 4.55281 19.2403C3.96155 19.2403 3.75398 18.9321 3.81059 18.5925C3.83575 18.4289 3.9301 18.2717 4.08106 18.1396C4.40814 17.8566 5.21325 17.8188 5.52775 17.605C5.55291 17.3659 5.45856 17.2779 5.16293 17.2779C4.81698 17.2779 4.52765 17.3911 4.03074 17.7308L4.15025 16.9508C4.57797 16.6426 4.9931 16.4979 5.47114 16.4979C6.08126 16.4979 6.6222 16.7495 6.52156 17.4163L6.40205 18.171C6.35802 18.4352 6.3706 18.517 6.66623 18.5233L6.36431 19.2278ZM5.45856 18.039C5.1818 18.2151 4.66602 18.1836 4.60942 18.5484C4.58426 18.7183 4.69118 18.8441 4.86101 18.8441C5.02455 18.8441 5.22583 18.7749 5.38937 18.6617C5.37679 18.5988 5.38308 18.5359 5.40195 18.4164L5.45856 18.039Z" fill="#1D1D1B"/>
<path d="M7.33927 16.542H8.3834L8.32679 16.8879C8.66016 16.6049 8.91175 16.4979 9.23883 16.4979C9.8238 16.4979 10.0943 16.8565 9.99992 17.4414L9.72945 19.1963H8.68532L8.91175 17.7433C8.95578 17.4792 8.87401 17.3534 8.67274 17.3534C8.5092 17.3534 8.35824 17.4414 8.21357 17.6364L7.97455 19.19H6.93042L7.33927 16.542Z" fill="#1D1D1B"/>
<path d="M10.8176 15.7683H11.8617L11.5976 17.454L12.5977 16.542H13.8871L12.6039 17.6742L13.6355 19.1963H12.3209L11.5284 17.9635H11.5158L11.3271 19.19H10.283L10.8176 15.7683Z" fill="#1D1D1B"/>
<path d="M14.5098 15.7683H15.7112L15.1828 19.1963H13.9814L14.5098 15.7683Z" fill="#1D1D1B"/>
<path d="M16.2962 15.7683H18.0134C19.3406 15.7683 19.7243 16.7307 19.5985 17.5295C19.479 18.3094 18.8625 19.1963 17.6989 19.1963H15.7616L16.2962 15.7683ZM17.4096 18.3786C17.9945 18.3786 18.3153 18.0893 18.4097 17.4792C18.4789 17.0263 18.3405 16.5797 17.6926 16.5797H17.3718L17.0951 18.3786H17.4096Z" fill="#1D1D1B"/>
<path d="M12.9122 0.445923H7.91173L7.245 4.67906H8.09414C8.55959 4.67906 8.99989 4.4652 9.18859 4.15699C9.25149 4.05635 9.27665 3.96829 9.27665 3.88652C9.27665 3.71041 9.15714 3.57832 9.03763 3.49026C8.71055 3.24495 8.64136 2.98706 8.64136 2.80465C8.64136 2.76691 8.64137 2.73546 8.64766 2.70401C8.71684 2.25743 9.32068 1.7731 10.1195 1.7731C10.5975 1.7731 10.9624 1.88632 11.1825 2.09389C11.3775 2.2763 11.453 2.53419 11.3964 2.80465C11.3272 3.12544 11.0064 3.38962 10.824 3.52171C10.3397 3.86136 10.4026 4.15699 10.434 4.24505C10.5346 4.50923 10.9183 4.67906 11.214 4.67906H12.5097C12.5097 4.67906 12.5097 4.67906 12.5097 4.68535C14.2709 4.69793 15.2144 5.50933 14.9187 7.39632C14.642 9.15121 13.2959 9.90601 11.692 9.91859L11.0567 13.9693H11.9939C15.9503 13.9693 19.1833 11.4282 19.8186 7.41519C20.6048 2.43355 17.441 0.445923 12.9122 0.445923Z" fill="#1D1D1B"/>
</g>
<defs>
<clipPath id="clip0_2150_64072">
<rect width="20" height="19.4737" fill="white"/>
</clipPath>
</defs>
</svg>
