<svg width="48" height="49" viewBox="0 0 48 49" fill="none" xmlns="http://www.w3.org/2000/svg">
<path d="M15.1439 25.6801L17.1489 13.0425C16.359 13.0425 15.0072 13.0425 15.0072 13.0425C14.0047 13.0425 12.7136 12.4805 12.3338 11.4476C12.2123 11.0982 11.9237 9.89828 13.5794 8.72869C14.1718 8.31858 14.5515 7.86289 14.6274 7.51354C14.7034 7.14899 14.6123 6.83001 14.354 6.58698C13.9895 6.23762 13.2756 6.04016 12.3642 6.04016C10.8301 6.04016 9.75164 6.92115 9.64531 7.5591C9.56936 8.02998 9.93391 8.40971 10.2529 8.65274C11.2098 9.36665 11.4377 10.3995 10.8453 11.3717C10.2377 12.3742 8.91622 13.0273 7.5036 13.0425C7.5036 13.0425 6.10617 13.0425 5.31632 13.0425C5.13405 14.2728 2.15692 33.1381 1.92908 34.6267H13.7465C13.8528 33.9735 14.3996 30.404 15.1439 25.6801Z" fill="black"/>
<path d="M1.2911 39.0011H6.13653C8.20229 39.0011 8.70354 40.0492 8.55165 41.0061C8.43013 41.7808 7.89851 42.358 6.98714 42.7377C8.14154 43.1782 8.59722 43.8617 8.43014 44.9402C8.21748 46.292 7.04789 47.2945 5.51376 47.2945H0L1.2911 39.0011ZM4.49607 42.4339C5.43782 42.4339 5.87831 41.9327 5.96945 41.3403C6.06058 40.7023 5.77198 40.2618 4.83024 40.2618H3.99482L3.66065 42.4339H4.49607ZM3.97963 46.0034C4.95175 46.0034 5.51376 45.6085 5.65047 44.8035C5.75679 44.1047 5.36187 43.6946 4.42012 43.6946H3.47838L3.11383 46.0186H3.97963V46.0034Z" fill="black"/>
<path d="M15.2199 47.3553C13.9592 47.4464 13.3516 47.3097 13.0478 46.7629C12.3795 47.173 11.6352 47.3857 10.8454 47.3857C9.41755 47.3857 8.91629 46.6414 9.053 45.8211C9.11376 45.4262 9.3416 45.0465 9.70615 44.7275C10.496 44.044 12.4402 43.9528 13.1997 43.4364C13.2605 42.8592 13.0326 42.6466 12.3187 42.6466C11.4833 42.6466 10.7846 42.92 9.58463 43.7402L9.87323 41.8567C10.9061 41.1124 11.9086 40.7631 13.063 40.7631C14.5364 40.7631 15.8427 41.3706 15.5996 42.9807L15.311 44.8034C15.2047 45.4414 15.2351 45.6389 15.949 45.6541L15.2199 47.3553ZM13.0326 44.4845C12.3643 44.9098 11.1188 44.8338 10.9821 45.7148C10.9213 46.1249 11.1795 46.4287 11.5896 46.4287C11.9846 46.4287 12.4706 46.2616 12.8655 45.9882C12.8352 45.8363 12.8504 45.6844 12.8959 45.3958L13.0326 44.4845Z" fill="black"/>
<path d="M17.5743 40.8694H20.0958L19.9591 41.7048C20.7641 41.0213 21.3717 40.7631 22.1616 40.7631C23.5742 40.7631 24.2273 41.6289 23.9995 43.0415L23.3463 47.2793H20.8249L21.3717 43.7706C21.478 43.1326 21.2806 42.8288 20.7945 42.8288C20.3996 42.8288 20.035 43.0415 19.6857 43.5123L19.1085 47.2641H16.587L17.5743 40.8694Z" fill="black"/>
<path d="M25.9741 39.0007H28.4955L27.8576 43.0715L30.2727 40.869H33.3865L30.2879 43.6031L32.7789 47.279H29.6044L27.6905 44.3018H27.6601L27.2044 47.2638H24.683L25.9741 39.0007Z" fill="black"/>
<path d="M34.8902 39.001H37.7914L36.5154 47.2792H33.6143L34.8902 39.001Z" fill="black"/>
<path d="M39.2041 39.001H43.3508C46.5557 39.001 47.4823 41.325 47.1785 43.254C46.8899 45.1375 45.4014 47.2792 42.5913 47.2792H37.913L39.2041 39.001ZM41.8926 45.3046C43.3052 45.3046 44.0799 44.6059 44.3077 43.1325C44.4748 42.0389 44.1406 40.9604 42.5761 40.9604H41.8015L41.1331 45.3046H41.8926Z" fill="black"/>
<path d="M31.0321 1.99988H18.9565L17.3464 12.2224H19.397C20.521 12.2224 21.5843 11.7059 22.04 10.9616C22.1919 10.7186 22.2526 10.506 22.2526 10.3085C22.2526 9.88319 21.964 9.56421 21.6754 9.35156C20.8856 8.75917 20.7185 8.13641 20.7185 7.69592C20.7185 7.60478 20.7185 7.52883 20.7337 7.45288C20.9008 6.37443 22.3589 5.20485 24.288 5.20485C25.4424 5.20485 26.3234 5.47826 26.855 5.97951C27.3259 6.42 27.5082 7.04277 27.3715 7.69592C27.2044 8.47058 26.4297 9.10853 25.9892 9.42751C24.8196 10.2477 24.9715 10.9616 25.0475 11.1743C25.2905 11.8123 26.2171 12.2224 26.931 12.2224H30.06C30.06 12.2224 30.06 12.2224 30.06 12.2376C34.313 12.2679 36.5914 14.2274 35.8775 18.7842C35.2092 23.0221 31.9587 24.8448 28.0854 24.8752L26.5512 34.6572H28.8145C38.3686 34.6572 46.176 28.5206 47.7101 18.8298C49.6088 6.79974 41.9685 1.99988 31.0321 1.99988Z" fill="black"/>
</svg>
