<svg width="20" height="20" viewBox="0 0 20 20" fill="none" xmlns="http://www.w3.org/2000/svg">
<g clip-path="url(#clip0_3886_158749)">
<path d="M6.33297 10.2519L7.16325 5.01868C6.83617 5.01868 6.27636 5.01868 6.27636 5.01868C5.86123 5.01868 5.32658 4.78596 5.16933 4.35824C5.11901 4.21357 4.9995 3.71667 5.68511 3.23234C5.93042 3.06251 6.08767 2.87381 6.11911 2.72914C6.15056 2.57818 6.11283 2.4461 6.0059 2.34546C5.85494 2.20079 5.55931 2.11902 5.18191 2.11902C4.54663 2.11902 4.10004 2.48384 4.05601 2.74801C4.02456 2.943 4.17552 3.10025 4.30761 3.20089C4.70388 3.49652 4.79823 3.92423 4.55292 4.32679C4.30132 4.74193 3.75409 5.01239 3.16913 5.01868C3.16913 5.01868 2.59045 5.01868 2.26338 5.01868C2.1879 5.52817 0.955067 13.3403 0.860718 13.9567H5.7543C5.79833 13.6862 6.02477 12.2081 6.33297 10.2519Z" fill="#1D1D1B"/>
<path d="M0.596535 15.7682H2.60303C3.45846 15.7682 3.66603 16.2022 3.60313 16.5985C3.55281 16.9193 3.33266 17.1583 2.95527 17.3155C3.4333 17.498 3.622 17.781 3.55281 18.2276C3.46475 18.7874 2.98043 19.2025 2.34514 19.2025H0.0618896L0.596535 15.7682ZM1.92371 17.1897C2.31369 17.1897 2.4961 16.9822 2.53384 16.7369C2.57158 16.4727 2.45207 16.2903 2.06209 16.2903H1.71615L1.57777 17.1897H1.92371ZM1.70986 18.6679C2.11241 18.6679 2.34514 18.5043 2.40175 18.171C2.44578 17.8816 2.28224 17.7118 1.89226 17.7118H1.50229L1.35133 18.6742H1.70986V18.6679Z" fill="#1D1D1B"/>
<path d="M6.36431 19.2276C5.84225 19.2654 5.59065 19.2088 5.46485 18.9823C5.18809 19.1522 4.87988 19.2402 4.55281 19.2402C3.96155 19.2402 3.75398 18.932 3.81059 18.5924C3.83575 18.4288 3.9301 18.2716 4.08106 18.1395C4.40814 17.8564 5.21325 17.8187 5.52775 17.6048C5.55291 17.3658 5.45856 17.2778 5.16293 17.2778C4.81698 17.2778 4.52765 17.391 4.03074 17.7306L4.15025 16.9507C4.57797 16.6425 4.9931 16.4978 5.47114 16.4978C6.08126 16.4978 6.6222 16.7494 6.52156 17.4161L6.40205 18.1709C6.35802 18.4351 6.3706 18.5169 6.66623 18.5232L6.36431 19.2276ZM5.45856 18.0388C5.1818 18.215 4.66602 18.1835 4.60942 18.5483C4.58426 18.7182 4.69118 18.844 4.86101 18.844C5.02455 18.844 5.22583 18.7748 5.38937 18.6615C5.37679 18.5986 5.38308 18.5357 5.40195 18.4162L5.45856 18.0388Z" fill="#1D1D1B"/>
<path d="M7.33927 16.5418H8.3834L8.32679 16.8878C8.66016 16.6047 8.91175 16.4978 9.23883 16.4978C9.8238 16.4978 10.0943 16.8563 9.99992 17.4413L9.72945 19.1962H8.68532L8.91175 17.7432C8.95578 17.479 8.87401 17.3532 8.67274 17.3532C8.5092 17.3532 8.35824 17.4413 8.21357 17.6363L7.97455 19.1899H6.93042L7.33927 16.5418Z" fill="#1D1D1B"/>
<path d="M10.8176 15.7682H11.8617L11.5976 17.4539L12.5977 16.5418H13.8871L12.6039 17.674L13.6355 19.1962H12.3209L11.5284 17.9633H11.5158L11.3271 19.1899H10.283L10.8176 15.7682Z" fill="#1D1D1B"/>
<path d="M14.5098 15.7682H15.7112L15.1828 19.1962H13.9814L14.5098 15.7682Z" fill="#1D1D1B"/>
<path d="M16.2962 15.7682H18.0134C19.3406 15.7682 19.7243 16.7306 19.5985 17.5294C19.479 18.3094 18.8625 19.1962 17.6989 19.1962H15.7616L16.2962 15.7682ZM17.4096 18.3785C17.9945 18.3785 18.3153 18.0892 18.4097 17.4791C18.4789 17.0262 18.3405 16.5796 17.6926 16.5796H17.3718L17.0951 18.3785H17.4096Z" fill="#1D1D1B"/>
<path d="M12.9122 0.445892H7.91173L7.245 4.67903H8.09414C8.55959 4.67903 8.99989 4.46517 9.18859 4.15696C9.25149 4.05632 9.27665 3.96826 9.27665 3.88649C9.27665 3.71038 9.15714 3.57829 9.03763 3.49023C8.71055 3.24492 8.64136 2.98703 8.64136 2.80462C8.64136 2.76688 8.64137 2.73543 8.64766 2.70398C8.71684 2.2574 9.32068 1.77307 10.1195 1.77307C10.5975 1.77307 10.9624 1.88629 11.1825 2.09386C11.3775 2.27627 11.453 2.53416 11.3964 2.80462C11.3272 3.12541 11.0064 3.38959 10.824 3.52168C10.3397 3.86133 10.4026 4.15696 10.434 4.24502C10.5346 4.5092 10.9183 4.67903 11.214 4.67903H12.5097C12.5097 4.67903 12.5097 4.67903 12.5097 4.68532C14.2709 4.6979 15.2144 5.5093 14.9187 7.39629C14.642 9.15118 13.2959 9.90598 11.692 9.91856L11.0567 13.9693H11.9939C15.9503 13.9693 19.1833 11.4281 19.8186 7.41516C20.6048 2.43352 17.441 0.445892 12.9122 0.445892Z" fill="#1D1D1B"/>
</g>
<defs>
<clipPath id="clip0_3886_158749">
<rect width="20" height="19.4737" fill="white"/>
</clipPath>
</defs>
</svg>
