<svg width="48" height="48" viewBox="0 0 48 48" fill="none" xmlns="http://www.w3.org/2000/svg">
<path d="M14.65 43.1C13.75 43.1 12.9917 42.7917 12.375 42.175C11.7584 41.5583 11.45 40.8 11.45 39.9C11.45 39 11.7667 38.2417 12.4 37.625C13.0334 37.0083 13.8 36.7 14.7 36.7C15.6 36.7 16.3584 37.0167 16.975 37.65C17.5917 38.2833 17.9 39.0333 17.9 39.9C17.9 40.8 17.5834 41.5583 16.95 42.175C16.3167 42.7917 15.55 43.1 14.65 43.1ZM34.2001 43.1C33.3001 43.1 32.5417 42.7917 31.925 42.175C31.3084 41.5583 31 40.8 31 39.9C31 39 31.3084 38.2417 31.925 37.625C32.5417 37.0083 33.3001 36.7 34.2001 36.7C35.1 36.7 35.8584 37.0167 36.475 37.65C37.0917 38.2833 37.4001 39.0333 37.4001 39.9C37.4001 40.8 37.0917 41.5583 36.475 42.175C35.8584 42.7917 35.1 43.1 34.2001 43.1ZM3.80005 6.75V4.5H9.00005L17.3 22.25H31.25C31.35 22.25 31.45 22.225 31.55 22.175C31.65 22.125 31.7334 22.05 31.8 21.95L39.35 8.65H41.9001L34.2001 22.9C33.8667 23.4333 33.4417 23.8667 32.925 24.2C32.4084 24.5333 31.85 24.7 31.25 24.7H16.45L13.7 29.8C13.6 29.9667 13.6 30.1417 13.7 30.325C13.8 30.5083 13.95 30.6 14.15 30.6H37.4001V32.85H14.45C13.3167 32.85 12.45 32.3917 11.85 31.475C11.25 30.5583 11.2167 29.6333 11.75 28.7L14.95 22.8L7.55005 6.75H3.80005Z" fill="black"/>
<path fill-rule="evenodd" clip-rule="evenodd" d="M18 5V6.5H31V5H24.5H18ZM18 10.5V9H24.5H31V10.5H18ZM18 13V14.5H31V13H24.5H18ZM18 17V18.5H31V17H24.5H18Z" fill="#1C1B1F"/>
</svg>
