<svg width="24" height="24" viewBox="0 0 24 24" fill="none" xmlns="http://www.w3.org/2000/svg">
<path d="M7.15 21.55C6.66667 21.55 6.25433 21.3793 5.913 21.038C5.571 20.696 5.4 20.2833 5.4 19.8C5.4 19.3167 5.571 18.904 5.913 18.562C6.25433 18.2207 6.66667 18.05 7.15 18.05C7.63333 18.05 8.04567 18.2207 8.387 18.562C8.729 18.904 8.9 19.3167 8.9 19.8C8.9 20.2833 8.729 20.696 8.387 21.038C8.04567 21.3793 7.63333 21.55 7.15 21.55ZM16.85 21.55C16.3667 21.55 15.9543 21.3793 15.613 21.038C15.271 20.696 15.1 20.2833 15.1 19.8C15.1 19.3167 15.271 18.904 15.613 18.562C15.9543 18.2207 16.3667 18.05 16.85 18.05C17.3333 18.05 17.7457 18.2207 18.087 18.562C18.429 18.904 18.6 19.3167 18.6 19.8C18.6 20.2833 18.429 20.696 18.087 21.038C17.7457 21.3793 17.3333 21.55 16.85 21.55ZM1.5 3.75V2.25H4.35L8.525 11.05H15.35C15.4167 11.05 15.471 11.0373 15.513 11.012C15.5543 10.9873 15.5917 10.95 15.625 10.9L19.325 4.25H21.025L16.925 11.65C16.775 11.9333 16.5627 12.154 16.288 12.312C16.0127 12.4707 15.7167 12.55 15.4 12.55H8.1L6.95 14.675C6.9 14.7583 6.896 14.8417 6.938 14.925C6.97933 15.0083 7.05 15.05 7.15 15.05H18.6V16.55H7.15C6.48333 16.55 5.97933 16.2667 5.638 15.7C5.296 15.1333 5.29167 14.5583 5.625 13.975L7.05 11.4L3.4 3.75H1.5Z" fill="black"/>
<path fill-rule="evenodd" clip-rule="evenodd" d="M8.5 1V2.09091H15.5V1H12H8.5ZM8.5 4.09091V3H12H15.5V4.09091H8.5ZM8.5 5V6.09091H15.5V5H12H8.5ZM8.5 7V8.09091H15.5V7H12H8.5Z" fill="#1C1B1F"/>
</svg>
