<svg width="40" height="40" viewBox="0 0 40 40" fill="none" xmlns="http://www.w3.org/2000/svg">
<path d="M12.125 35.917C11.347 35.917 10.6943 35.653 10.167 35.125C9.63901 34.597 9.37501 33.9443 9.37501 33.167C9.37501 32.417 9.64601 31.771 10.188 31.229C10.7293 30.6877 11.375 30.417 12.125 30.417C12.903 30.417 13.5557 30.6877 14.083 31.229C14.611 31.771 14.875 32.417 14.875 33.167C14.875 33.9443 14.611 34.597 14.083 35.125C13.5557 35.653 12.903 35.917 12.125 35.917ZM28.333 35.917C27.583 35.917 26.9443 35.653 26.417 35.125C25.889 34.597 25.625 33.9443 25.625 33.167C25.625 32.417 25.889 31.771 26.417 31.229C26.9443 30.6877 27.597 30.417 28.375 30.417C29.125 30.417 29.7707 30.6877 30.312 31.229C30.854 31.771 31.125 32.417 31.125 33.167C31.125 33.9443 30.854 34.597 30.312 35.125C29.7707 35.653 29.111 35.917 28.333 35.917ZM2.95801 5.833V3.75H7.41701L14.375 18.5H25.875C25.9863 18.5 26.0767 18.4793 26.146 18.438C26.2153 18.396 26.2777 18.3333 26.333 18.25L32.583 7.167H34.958L28.417 19.167C28.139 19.639 27.7777 20.014 27.333 20.292C26.889 20.5693 26.417 20.708 25.917 20.708H13.625L11.458 24.708C11.3747 24.8473 11.3747 24.9933 11.458 25.146C11.5413 25.2987 11.6663 25.375 11.833 25.375H31.125V27.458H12C11 27.458 10.243 27.0413 9.72901 26.208C9.21501 25.3747 9.18034 24.5413 9.62501 23.708L12.208 19L6.08301 5.833H2.95801Z" fill="black"/>
<path fill-rule="evenodd" clip-rule="evenodd" d="M16 5V6.5H25V5H20.5H16ZM16 9.5V8H20.5H25V9.5H16ZM16 11V12.5H25V11H20.5H16ZM16 14V15.5H25V14H20.5H16Z" fill="#1C1B1F"/>
</svg>
