<svg width="48" height="48" viewBox="0 0 48 48" fill="none" xmlns="http://www.w3.org/2000/svg">
<path d="M36.25 43.5C34.7833 43.5 33.5417 42.9833 32.525 41.95C31.5083 40.9167 31 39.6667 31 38.2C31 37.9667 31.025 37.6833 31.075 37.35C31.125 37.0167 31.2 36.7333 31.3 36.5L15.7 27.4C15.2333 27.9667 14.65 28.425 13.95 28.775C13.25 29.125 12.5333 29.3 11.8 29.3C10.3333 29.3 9.08333 28.7833 8.05 27.75C7.01667 26.7167 6.5 25.4667 6.5 24C6.5 22.5333 7.01667 21.2833 8.05 20.25C9.08333 19.2167 10.3333 18.7 11.8 18.7C12.5333 18.7 13.2417 18.8583 13.925 19.175C14.6083 19.4917 15.2 19.9333 15.7 20.5L31.3 11.5C31.2 11.2333 31.125 10.95 31.075 10.65C31.025 10.35 31 10.0667 31 9.8C31 8.33333 31.5083 7.08333 32.525 6.05C33.5417 5.01667 34.7833 4.5 36.25 4.5C37.7167 4.5 38.9667 5.01667 40 6.05C41.0333 7.08333 41.55 8.31667 41.55 9.75C41.55 11.25 41.0333 12.5083 40 13.525C38.9667 14.5417 37.7167 15.05 36.25 15.05C35.4833 15.05 34.7583 14.9167 34.075 14.65C33.3917 14.3833 32.8167 13.9667 32.35 13.4L16.8 22.2C16.8667 22.4667 16.925 22.7667 16.975 23.1C17.025 23.4333 17.05 23.7333 17.05 24C17.05 24.2667 17.025 24.5417 16.975 24.825C16.925 25.1083 16.8667 25.3833 16.8 25.65L32.35 34.55C32.8167 34.0833 33.375 33.7 34.025 33.4C34.675 33.1 35.4167 32.95 36.25 32.95C37.7167 32.95 38.9667 33.4583 40 34.475C41.0333 35.4917 41.55 36.7333 41.55 38.2C41.55 39.6667 41.0333 40.9167 40 41.95C38.9667 42.9833 37.7167 43.5 36.25 43.5ZM36.25 12.8C37.0833 12.8 37.7917 12.5083 38.375 11.925C38.9583 11.3417 39.25 10.6167 39.25 9.75C39.25 8.91667 38.9583 8.20833 38.375 7.625C37.7917 7.04167 37.0833 6.75 36.25 6.75C35.4167 6.75 34.7083 7.04167 34.125 7.625C33.5417 8.20833 33.25 8.93333 33.25 9.8C33.25 10.6333 33.5417 11.3417 34.125 11.925C34.7083 12.5083 35.4167 12.8 36.25 12.8ZM11.8 27C12.6333 27 13.3417 26.7083 13.925 26.125C14.5083 25.5417 14.8 24.8333 14.8 24C14.8 23.1667 14.5083 22.4583 13.925 21.875C13.3417 21.2917 12.6167 21 11.75 21C10.9167 21 10.2083 21.2917 9.625 21.875C9.04167 22.4583 8.75 23.1667 8.75 24C8.75 24.8333 9.04167 25.5417 9.625 26.125C10.2083 26.7083 10.9333 27 11.8 27ZM36.25 41.25C37.0833 41.25 37.7917 40.9583 38.375 40.375C38.9583 39.7917 39.25 39.0667 39.25 38.2C39.25 37.3667 38.9583 36.6583 38.375 36.075C37.7917 35.4917 37.0833 35.2 36.25 35.2C35.4167 35.2 34.7083 35.4917 34.125 36.075C33.5417 36.6583 33.25 37.3833 33.25 38.25C33.25 39.0833 33.5417 39.7917 34.125 40.375C34.7083 40.9583 35.4167 41.25 36.25 41.25Z" fill="black"/>
</svg>
