<svg width="12" height="12" viewBox="0 0 12 12" fill="none" xmlns="http://www.w3.org/2000/svg">
<mask id="mask0_6377_151" style="mask-type:alpha" maskUnits="userSpaceOnUse" x="0" y="0" width="12" height="12">
<rect width="12" height="12" fill="#D9D9D9"/>
</mask>
<g mask="url(#mask0_6377_151)">
<path d="M5.35352 7.91064L8.37335 4.90031L7.65514 4.1821L5.35352 6.47124L4.32688 5.4571L3.60868 6.17531L5.35352 7.91064ZM2.73585 10.3106C2.45054 10.3106 2.20629 10.209 2.00312 10.0059C1.79993 9.80269 1.69834 9.55844 1.69834 9.27314V2.74487C1.69834 2.45956 1.79993 2.21531 2.00312 2.01214C2.20629 1.80896 2.45054 1.70737 2.73585 1.70737H4.7747C4.85532 1.44506 5.00686 1.22948 5.22933 1.06064C5.45179 0.891794 5.70867 0.807373 5.99998 0.807373C6.29129 0.807373 6.54817 0.891794 6.77063 1.06064C6.99309 1.22948 7.14464 1.44506 7.22525 1.70737H9.2641C9.54942 1.70737 9.79367 1.80896 9.99684 2.01214C10.2 2.21531 10.3016 2.45956 10.3016 2.74487V9.27314C10.3016 9.55844 10.2 9.80269 9.99684 10.0059C9.79367 10.209 9.54942 10.3106 9.2641 10.3106H2.73585ZM2.73585 9.27314H9.2641V2.74487H2.73585V9.27314ZM5.99998 2.43291C6.09355 2.43291 6.17093 2.40232 6.23212 2.34114C6.2933 2.27995 6.32389 2.20257 6.32389 2.109C6.32389 2.01542 6.2933 1.93804 6.23212 1.87686C6.17093 1.81568 6.09355 1.78509 5.99998 1.78509C5.9064 1.78509 5.82902 1.81568 5.76784 1.87686C5.70666 1.93804 5.67607 2.01542 5.67607 2.109C5.67607 2.20257 5.70666 2.27995 5.76784 2.34114C5.82902 2.40232 5.9064 2.43291 5.99998 2.43291Z" fill="black"/>
</g>
</svg>
