<svg width="48" height="48" viewBox="0 0 48 48" fill="none" xmlns="http://www.w3.org/2000/svg">
<path d="M14.5499 43.1C13.6499 43.1 12.8916 42.7833 12.2749 42.15C11.6582 41.5167 11.3499 40.75 11.3499 39.85C11.3499 38.95 11.6582 38.1917 12.2749 37.575C12.8916 36.9583 13.6499 36.65 14.5499 36.65C15.4166 36.65 16.1749 36.9667 16.8249 37.6C17.4749 38.2333 17.7999 39 17.7999 39.9C17.7999 40.7667 17.4832 41.5167 16.8499 42.15C16.2166 42.7833 15.4499 43.1 14.5499 43.1ZM33.9499 43.1C33.0499 43.1 32.2916 42.7833 31.6749 42.15C31.0582 41.5167 30.7499 40.75 30.7499 39.85C30.7499 38.95 31.0582 38.1917 31.6749 37.575C32.2916 36.9583 33.0499 36.65 33.9499 36.65C34.8166 36.65 35.5666 36.9667 36.1999 37.6C36.8332 38.2333 37.1499 39 37.1499 39.9C37.1499 40.7667 36.8416 41.5167 36.2249 42.15C35.6082 42.7833 34.8499 43.1 33.9499 43.1ZM11.6499 10.75L17.1999 22.35H31.1499C31.2499 22.35 31.3499 22.325 31.4499 22.275C31.5499 22.225 31.6166 22.15 31.6499 22.05L37.5999 11.3C37.6666 11.1333 37.6666 11 37.5999 10.9C37.5332 10.8 37.4332 10.75 37.2999 10.75H11.6499ZM10.4999 8.45H38.1999C39.2666 8.45 39.9666 8.78333 40.2999 9.45C40.6332 10.1167 40.5666 10.8667 40.0999 11.7L33.9499 22.8C33.6499 23.3333 33.2332 23.775 32.6999 24.125C32.1666 24.475 31.5999 24.65 30.9999 24.65H16.1999L13.4499 29.75C13.3499 29.8833 13.3416 30.0417 13.4249 30.225C13.5082 30.4083 13.6499 30.5 13.8499 30.5H37.1499V32.8H14.1999C12.9332 32.8 12.0249 32.3583 11.4749 31.475C10.9249 30.5917 10.9332 29.6333 11.4999 28.6L14.6999 22.75L7.1499 6.75H3.3999V4.5H8.5999L10.4999 8.45Z" fill="black"/>
</svg>
