<svg width="48" height="48" viewBox="0 0 48 48" fill="none" xmlns="http://www.w3.org/2000/svg">
<path d="M13.9 41C13.1333 41 12.4667 40.7167 11.9 40.15C11.3333 39.5833 11.05 38.9 11.05 38.1V10.9H9V8.65H17.55V7.25H30.45V8.65H39V10.9H36.95V38.1C36.95 38.9 36.6667 39.5833 36.1 40.15C35.5333 40.7167 34.8667 41 34.1 41H13.9ZM34.7 10.9H13.3V38.1C13.3 38.3 13.3583 38.4583 13.475 38.575C13.5917 38.6917 13.7333 38.75 13.9 38.75H34.1C34.2333 38.75 34.3667 38.6833 34.5 38.55C34.6333 38.4167 34.7 38.2667 34.7 38.1V10.9ZM19.05 34.5H21.35V15.1H19.05V34.5ZM26.65 34.5H28.95V15.1H26.65V34.5ZM13.3 10.9V38.75V38.1V10.9Z" fill="black"/>
</svg>
