<svg width="48" height="48" viewBox="0 0 48 48" fill="none" xmlns="http://www.w3.org/2000/svg">
<path d="M26.75 26.15C25.35 26.15 24.1666 25.6667 23.2 24.7C22.2333 23.7333 21.75 22.55 21.75 21.15C21.75 19.75 22.2333 18.5667 23.2 17.6C24.1666 16.6333 25.35 16.15 26.75 16.15C28.15 16.15 29.3333 16.6333 30.2999 17.6C31.2666 18.5667 31.75 19.75 31.75 21.15C31.75 22.55 31.2666 23.7333 30.2999 24.7C29.3333 25.6667 28.15 26.15 26.75 26.15ZM12.1 33.1C11.3333 33.1 10.6666 32.8083 10.1 32.225C9.53329 31.6417 9.24995 30.9667 9.24995 30.2V12.1C9.24995 11.3333 9.53329 10.6667 10.1 10.1C10.6666 9.53333 11.3333 9.25 12.1 9.25H41.4C42.2 9.25 42.8833 9.53333 43.45 10.1C44.0166 10.6667 44.2999 11.3333 44.2999 12.1V30.2C44.2999 30.9667 44.0166 31.6417 43.45 32.225C42.8833 32.8083 42.2 33.1 41.4 33.1H12.1ZM15.85 30.8H37.7C37.7 29.6 38.125 28.575 38.9749 27.725C39.8249 26.875 40.8499 26.45 42.0499 26.45V15.85C40.8499 15.85 39.8249 15.425 38.9749 14.575C38.125 13.725 37.7 12.7 37.7 11.5H15.85C15.85 12.7 15.425 13.725 14.575 14.575C13.725 15.425 12.7 15.85 11.5 15.85V26.45C12.7 26.45 13.725 26.875 14.575 27.725C15.425 28.575 15.85 29.6 15.85 30.8ZM38.3499 38.6H6.59995C5.79995 38.6 5.11662 38.3167 4.54995 37.75C3.98328 37.1833 3.69995 36.5167 3.69995 35.75V15.2H5.94995V35.75C5.94995 35.8833 6.01662 36.0167 6.14995 36.15C6.28328 36.2833 6.43328 36.35 6.59995 36.35H38.3499V38.6ZM12.1 30.8H11.5V11.5H12.1C11.9333 11.5 11.7916 11.5583 11.675 11.675C11.5583 11.7917 11.5 11.9333 11.5 12.1V30.2C11.5 30.3667 11.5583 30.5083 11.675 30.625C11.7916 30.7417 11.9333 30.8 12.1 30.8Z" fill="black"/>
</svg>
