<svg width="48" height="48" viewBox="0 0 48 48" fill="none" xmlns="http://www.w3.org/2000/svg">
<path d="M6.85002 41.1V34.2L16.4 24.65L7.10002 15.3C6.86669 15.0667 6.69169 14.8083 6.57502 14.525C6.45836 14.2417 6.40002 13.9667 6.40002 13.7C6.40002 13.4333 6.45836 13.1583 6.57502 12.875C6.69169 12.5917 6.86669 12.3333 7.10002 12.1L11.7 7.5C11.9334 7.26667 12.1917 7.08333 12.475 6.95C12.7584 6.81667 13.0334 6.75 13.3 6.75C13.5667 6.75 13.85 6.81667 14.15 6.95C14.45 7.08333 14.7 7.26667 14.9 7.5L24.3 16.85L33.9 7.25C34.0334 7.11667 34.1917 7.025 34.375 6.975C34.5584 6.925 34.7334 6.9 34.9 6.9C35.1 6.9 35.2834 6.925 35.45 6.975C35.6167 7.025 35.7834 7.11667 35.95 7.25L40.75 12.1C40.8834 12.2333 40.9834 12.3833 41.05 12.55C41.1167 12.7167 41.15 12.9 41.15 13.1C41.15 13.3 41.1167 13.4833 41.05 13.65C40.9834 13.8167 40.8834 13.9667 40.75 14.1L31.15 23.7L40.55 33.1C40.75 33.3 40.9167 33.55 41.05 33.85C41.1834 34.15 41.25 34.4333 41.25 34.7C41.25 34.9667 41.1834 35.2417 41.05 35.525C40.9167 35.8083 40.75 36.0667 40.55 36.3L35.9 40.85C35.7 41.0833 35.4584 41.2583 35.175 41.375C34.8917 41.4917 34.6 41.55 34.3 41.55C34.0334 41.55 33.7584 41.4917 33.475 41.375C33.1917 41.2583 32.95 41.0833 32.75 40.85L23.35 31.55L13.75 41.1H6.85002ZM18.05 23.05L22.7 18.45L18.65 14.4L16.3 16.8L14.7 15.2L17.05 12.8L13.3 9.05L8.70002 13.7L18.05 23.05ZM34.25 39.3L38.9 34.65L35.15 30.9L32.75 33.3L31.15 31.7L33.55 29.3L29.5 25.3L24.9 29.95L34.25 39.3ZM9.15002 38.85H12.75L33.25 18.4L29.6 14.75L9.15002 35.2V38.85ZM34.85 16.8L38.5 13.15L34.85 9.5L31.2 13.15L34.85 16.8Z" fill="black"/>
</svg>
