<svg width="20" height="20" viewBox="0 0 20 20" fill="none" xmlns="http://www.w3.org/2000/svg">
<path d="M2.854 17.125V13.979L6.625 10.208L3.146 6.771C3.02067 6.64567 2.92333 6.50333 2.854 6.344C2.78467 6.184 2.75 6.01367 2.75 5.833C2.75 5.65233 2.78467 5.47867 2.854 5.312C2.92333 5.14533 3.02067 4.99967 3.146 4.875L4.708 3.312C4.83333 3.18733 4.97933 3.08667 5.146 3.01C5.31267 2.934 5.48633 2.896 5.667 2.896C5.84767 2.896 6.01767 2.934 6.177 3.01C6.337 3.08667 6.47933 3.18733 6.604 3.312L10.083 6.812L13.792 3.104C13.8613 3.02067 13.948 2.96167 14.052 2.927C14.156 2.89233 14.2567 2.875 14.354 2.875C14.4653 2.875 14.5697 2.89233 14.667 2.927C14.7637 2.96167 14.847 3.02067 14.917 3.104L16.917 5.104C17.0003 5.18733 17.0593 5.27767 17.094 5.375C17.1287 5.47233 17.146 5.56967 17.146 5.667C17.146 5.77767 17.1287 5.87833 17.094 5.969C17.0593 6.059 17.0003 6.13867 16.917 6.208L13.188 9.938L16.667 13.396C16.8057 13.5207 16.9097 13.6663 16.979 13.833C17.0483 13.9997 17.083 14.1733 17.083 14.354C17.083 14.5347 17.0483 14.7083 16.979 14.875C16.9097 15.0417 16.8057 15.1873 16.667 15.312L15.104 16.854C14.9793 16.9793 14.8337 17.073 14.667 17.135C14.5003 17.1977 14.3337 17.229 14.167 17.229C14.0003 17.229 13.83 17.1943 13.656 17.125C13.4827 17.0557 13.3333 16.9583 13.208 16.833L9.771 13.375L6 17.125H2.854ZM7.562 9.292L9.125 7.729L7.875 6.458L6.917 7.438L5.958 6.5L6.938 5.542L5.667 4.25L4.083 5.812L7.562 9.292ZM14.146 15.896L15.729 14.333L14.438 13.042L13.458 14.021L12.542 13.083L13.5 12.104L12.25 10.854L10.688 12.438L14.146 15.896ZM4.188 15.792H5.438L13.375 7.854L12.146 6.604L4.188 14.562V15.792ZM14.312 6.896L15.562 5.646L14.333 4.417L13.083 5.667L14.312 6.896Z" fill="black"/>
</svg>
