<svg width="48" height="48" viewBox="0 0 48 48" fill="none" xmlns="http://www.w3.org/2000/svg">
<path d="M6.5 31.1V28.85H21V31.1H6.5ZM6.5 22.9V20.65H29.25V22.9H6.5ZM6.5 14.75V12.45H29.25V14.75H6.5Z" fill="black"/>
<path d="M31.5177 38.0132L34.5 35.7212L37.4822 38.0132L36.3639 34.2345L39.1598 32.2522H35.6805L34.5 28.4115L33.3195 32.2522H29.8402L32.6361 34.2345L31.5177 38.0132ZM27.9763 43L30.4305 34.9778L24 30.3938H31.9837L34.5 22L37.0163 30.3938H45L38.5695 34.9778L41.0237 43L34.5 38.0442L27.9763 43Z" fill="black"/>
</svg>
