<svg width="48" height="48" viewBox="0 0 48 48" fill="none" xmlns="http://www.w3.org/2000/svg">
<path d="M38.75 40.9C35.0167 40.9 31.2667 39.9417 27.5 38.025C23.7334 36.1083 20.3334 33.6333 17.3 30.6C14.2667 27.5667 11.8 24.175 9.90005 20.425C8.00005 16.675 7.05005 12.9333 7.05005 9.2C7.05005 8.56667 7.25838 8.04167 7.67505 7.625C8.09172 7.20833 8.61672 7 9.25005 7H14.95C15.4834 7 15.9334 7.16667 16.3 7.5C16.6667 7.83333 16.9167 8.28333 17.05 8.85L18.25 14.2C18.3167 14.7 18.3 15.15 18.2 15.55C18.1 15.95 17.9 16.2833 17.6 16.55L12.9 21.15C14.8 24.35 16.925 27.1083 19.275 29.425C21.625 31.7417 24.3167 33.7333 27.35 35.4L31.85 30.7C32.1834 30.3333 32.5584 30.075 32.975 29.925C33.3917 29.775 33.8334 29.75 34.3 29.85L39.1501 30.95C39.6834 31.05 40.1167 31.3 40.4501 31.7C40.7834 32.1 40.9501 32.5833 40.9501 33.15V38.65C40.9501 39.2833 40.7417 39.8167 40.3251 40.25C39.9084 40.6833 39.3834 40.9 38.75 40.9ZM11.75 19.1L15.85 15.1C15.9167 15.0333 15.9584 14.9583 15.975 14.875C15.9917 14.7917 16 14.7167 16 14.65L14.9 9.6C14.8667 9.46667 14.8167 9.375 14.75 9.325C14.6834 9.275 14.6 9.25 14.5 9.25H9.60005C9.50005 9.25 9.42505 9.275 9.37505 9.325C9.32505 9.375 9.30005 9.45 9.30005 9.55C9.26672 10.85 9.46671 12.2917 9.90005 13.875C10.3334 15.4583 10.95 17.2 11.75 19.1ZM38.4001 38.65C38.5001 38.65 38.5751 38.625 38.625 38.575C38.675 38.525 38.7001 38.45 38.7001 38.35V33.45C38.7001 33.35 38.675 33.2667 38.625 33.2C38.5751 33.1333 38.5001 33.0833 38.4001 33.05L33.85 32.15C33.7834 32.1167 33.7167 32.1167 33.6501 32.15L33.4501 32.25L29.5 36.45C30.8667 37.1167 32.3584 37.6333 33.975 38C35.5917 38.3667 37.0667 38.5833 38.4001 38.65Z" fill="black"/>
</svg>
