<svg width="20" height="20" viewBox="0 0 20 20" fill="none" xmlns="http://www.w3.org/2000/svg">
<path d="M16.208 17.042C14.5693 17.042 12.955 16.66 11.365 15.896C9.77432 15.132 8.35399 14.125 7.10399 12.875C5.85399 11.625 4.84699 10.2083 4.08299 8.62499C3.31966 7.04166 2.93799 5.42366 2.93799 3.77099C2.93799 3.53499 3.02465 3.33366 3.19799 3.16699C3.37132 3.00033 3.57599 2.91699 3.81199 2.91699H6.60399C6.82666 2.91699 7.01432 2.98299 7.16699 3.11499C7.31965 3.24633 7.41666 3.41633 7.45799 3.62499L7.97899 6.14599C8.00699 6.34066 7.99665 6.51766 7.94799 6.67699C7.89932 6.83699 7.81265 6.97233 7.68799 7.08299L5.77099 8.97899C6.38232 10.0343 7.13566 11.0137 8.03099 11.917C8.92699 12.8197 9.94432 13.5973 11.083 14.25L12.938 12.333C13.0907 12.1803 13.2433 12.0833 13.396 12.042C13.5487 12 13.7223 11.993 13.917 12.021L16.354 12.542C16.5627 12.5693 16.733 12.6593 16.865 12.812C16.9963 12.9653 17.062 13.153 17.062 13.375V16.167C17.062 16.403 16.9787 16.6077 16.812 16.781C16.6453 16.955 16.444 17.042 16.208 17.042ZM5.14599 7.70799L6.56199 6.35399C6.58999 6.32599 6.60765 6.29466 6.61499 6.25999C6.62165 6.22533 6.61799 6.18733 6.60399 6.14599L6.24999 4.37499C6.23599 4.33299 6.21532 4.30166 6.18799 4.28099C6.15999 4.26033 6.12499 4.24999 6.08299 4.24999H4.41699C4.37499 4.24999 4.34365 4.26033 4.32299 4.28099C4.30232 4.30166 4.29199 4.32599 4.29199 4.35399C4.33332 4.90999 4.42332 5.46566 4.56199 6.02099C4.70132 6.57633 4.89599 7.13866 5.14599 7.70799ZM15.625 15.667C15.653 15.667 15.6773 15.6563 15.698 15.635C15.7187 15.6143 15.729 15.59 15.729 15.562V13.896C15.729 13.854 15.7187 13.8193 15.698 13.792C15.6773 13.764 15.646 13.743 15.604 13.729L13.896 13.375C13.868 13.361 13.84 13.361 13.812 13.375L13.729 13.417L12.333 14.875C12.889 15.111 13.448 15.2917 14.01 15.417C14.5727 15.5417 15.111 15.625 15.625 15.667Z" fill="black"/>
</svg>
